<svg xmlns="http://www.w3.org/2000/svg" xmlns:xlink="http://www.w3.org/1999/xlink" version="1.1" x="0px" y="0px" viewBox="0 0 90 90" enable-background="new 0 0 90 90" xml:space="preserve"><path d="M26.7,42.3l6.4-2.1l1.3,4.1L28,46.4l4,5.5l-3.5,2.5L24.5,49l-3.9,5.5l-3.5-2.5l4-5.5l-6.4-2.1l1.3-4.1l6.4,2.1v-6.7h4.3  V42.3z M47.2,42.3l6.4-2.1l1.3,4.1l-6.4,2.1l4,5.5l-3.5,2.5L45,49l-3.9,5.5l-3.5-2.5l4-5.5l-6.4-2.1l1.3-4.1l6.4,2.1v-6.7h4.3V42.3z   M67.6,42.3l6.4-2.1l1.3,4.1l-6.4,2.1l4,5.5l-3.5,2.5L65.5,49l-3.9,5.5L58,51.9l4-5.5l-6.4-2.1l1.3-4.1l6.4,2.1v-6.7h4.3V42.3z   M72.8,63.5H17.2C7.7,63.5,0,55.8,0,46.2v-2.5c0-9.5,7.7-17.3,17.2-17.3h55.6c9.5,0,17.2,7.7,17.2,17.3v2.5  C90,55.8,82.3,63.5,72.8,63.5z M17.2,31.4c-6.8,0-12.3,5.5-12.3,12.3v2.5c0,6.8,5.5,12.3,12.3,12.3h55.6c6.8,0,12.3-5.5,12.3-12.3  v-2.5c0-6.8-5.5-12.3-12.3-12.3H17.2z"/></svg>