<svg xmlns="http://www.w3.org/2000/svg" viewBox="0 0 512 512" fill="rgb(0, 0, 0)">
  <g fill="rgb(0, 0, 0)">
    <g fill="rgb(0, 0, 0)">
      <g fill="rgb(0, 0, 0)">
        <path d="M427 158c8 8 18 12 29 12s21-4 29-12c8-8 12-18 12-29 0-11-4-21-12-29l-59-59c-8-8-18-12-29-12 -11 0-21 4-29 12l-50 50c0 0 0 0 0 0 -2-1-4-1-6-2V54C312 24 288 0 258 0h-5c-30 0-54 24-54 54v37c-2 1-4 1-6 2 0 0 0 0 0 0l-50-50c-8-8-18-12-29-12 -11 0-21 4-29 12l-59 59c-8 8-12 18-12 29 0 11 4 21 12 29 8 8 18 12 29 12s21-4 29-12l31-31 10 10c-29 32-47 74-47 120 0 29 7 56 19 80l-45 45c-16 16-16 41 0 57l59 59c8 8 18 12 29 12 11 0 21-4 29-12 8-8 12-18 12-29s-4-21-12-29l-31-31 12-12c19 14 40 24 64 30l32 59c2 3 5 5 8 5h0c3 0 6-2 8-5l30-58c26-5 50-16 70-31l12 12 -31 31c-8 8-12 18-12 29s4 21 12 29c8 8 18 12 29 12 11 0 21-4 29-12l59-59c16-16 16-41 0-57l-45-45c12-24 19-51 19-80 0-46-18-89-47-120l10-10L427 158zM122 108c-2-2-4-3-6-3 -2 0-5 1-6 3L72 146c-4 4-10 7-16 7s-12-2-16-6c-4-4-7-10-7-16 0-6 2-12 7-16l59-59c4-4 10-6 16-6 6 0 12 2 16 6l45 45c-14 7-26 15-38 25L122 108zM97 259c0-17 3-33 7-48 20-3 47-5 76-6 -1 37-1 76 0 113 -29-1-55-3-75-6C100 295 97 277 97 259zM156 456c4 4 7 10 7 16s-2 12-6 16c-4 4-10 7-16 7s-12-2-16-7l-59-59c-9-9-9-23 0-31l42-42c8 13 18 24 29 34l-17 17c-2 2-3 4-3 6 0 2 1 5 3 6L156 456zM114 330c19 2 42 4 67 5 1 24 3 47 5 66C155 386 130 361 114 330zM181 186c-26 1-50 3-70 5 15-33 42-60 75-76C184 135 183 160 181 186zM218 54L218 54c0-19 16-35 35-35h5c19 0 35 16 35 35v32c-12-3-25-4-38-4 -13 0-25 1-38 4V54zM206 108c16-5 32-8 50-8 17 0 34 3 50 8 3 21 5 48 7 78 -37-1-76-1-113 0C201 155 203 128 206 108zM254 466l-17-32c6 1 13 1 19 1 5 0 9 0 14-1L254 466zM306 409c-16 5-33 8-50 8 -18 0-35-3-50-8 -3-20-5-45-6-73 18 1 37 1 56 1 19 0 38 0 56-1C311 364 309 389 306 409zM313 318c-37 1-77 1-114 0 -1-37-1-77 0-114 37-1 77-1 114 0C314 241 314 281 313 318zM326 401c2-19 4-42 5-66 25-1 48-3 67-5C382 361 357 386 326 401zM446 397c9 9 9 23 0 31l-59 59c-4 4-10 7-16 7 -6 0-12-2-16-7 -4-4-7-10-7-16s2-12 6-16l37-37c2-2 3-4 3-6 0-2-1-5-3-6l-17-17c11-10 21-22 29-34L446 397zM415 259c0 18-3 36-9 52 -20 3-46 5-75 6 1-37 1-76 0-113 29 1 56 3 76 6C412 226 415 242 415 259zM400 192c-20-2-44-4-70-5 -1-27-3-51-5-71C358 131 385 158 400 192zM390 108l-17 17c-11-10-24-18-38-25l45-45c4-4 10-6 16-6 6 0 12 2 16 6l59 59c4 4 7 10 7 16 0 6-2 12-6 16 -4 4-10 7-16 7s-12-2-16-6l-37-37c-2-2-4-3-6-3C394 106 392 107 390 108z" fill="rgb(0, 0, 0)"/>
        <path d="M280 139c1 0 1 0 2 0 4 0 8-3 9-7 1-5-2-10-7-11 -18-4-38-4-56 0 -5 1-8 6-7 11 1 5 6 8 11 7C247 135 265 135 280 139z" fill="rgb(0, 0, 0)"/>
        <path d="M221 386c-1 5 2 10 7 11 9 2 19 3 28 3 9 0 19-1 28-3 5-1 8-6 7-11 -1-5-6-8-11-7 -16 3-33 3-49 0C227 378 222 381 221 386z" fill="rgb(0, 0, 0)"/>
        <path d="M127 294c1 0 1 0 2 0 5-1 8-6 7-11 -2-8-2-16-2-24 0-8 1-17 2-25 1-5-2-10-7-11 -5-1-10 2-11 7 -2 9-3 19-3 28 0 9 1 19 3 28C119 291 123 294 127 294z" fill="rgb(0, 0, 0)"/>
        <path d="M378 259c0 8-1 16-2 24 -1 5 2 10 7 11 1 0 1 0 2 0 4 0 8-3 9-7 2-9 3-19 3-28 0-9-1-19-3-28 -1-5-6-8-11-7 -5 1-8 6-7 11C378 242 378 250 378 259z" fill="rgb(0, 0, 0)"/>
      </g>
    </g>
  </g>
</svg>
