<svg xmlns="http://www.w3.org/2000/svg" viewBox="0 0 512 512" width="512" height="512" fill="rgb(0, 0, 0)">
  <path d="m214 85-40 20c0 0-33 24-35 26-2 2-26 34-26 34L92 226c0 0-6 40-6 42l5 64 31 72 57 51 60 16 68-10 50-35c0 0 46-76 47-78 1-3 13-89 13-89l-28-90-39-57-71-35-65 7z" fill="#18726f"/>
  <g transform="matrix(0.00983243 -0.97876097 0.95735677 0.01005226 4.0512766 502.84818)" fill="#12c190">
    <path d="m481 220c0 0-15-12-18-13-3-1-26-4-26-4l0 103 25-3c0 0 23-16 28-21 5-5 7-25 7-25l0-22-16-14z" fill="#12c190"/>
    <path d="m136 66-21 0-14 12c0 0-3 10-3 12 0 1 5 24 5 24l38-13 19-12-24-22z" fill="#12c190"/>
    <path d="m371 91c0-3-10-18-14-22-3-4-13-7-15-8-2-1-17 6-17 6l-18 24 61 27 1-6c0 0 3-5 3-8 0-2 1-10 0-13z" fill="#12c190"/>
    <polygon points="371 421 364 387 306 419 315 438 342 445 357 439 " fill="#12c190"/>
    <polygon points="160 420 105 391 102 424 112 442 129 442 146 435 " fill="#12c190"/>
  </g>
  <path d="m264 57c0 6 4 10 10 11 6 0 10-5 10-10 0-6-4-10-10-11-6 0-10 5-10 10z"/>
  <path d="m223 56c0 6 4 10 10 11 6 0 10-5 10-10 0-6-4-10-10-11-6 0-10 5-10 10z"/>
  <path d="m210 26c-11 14-18 32-18 51 0 1 0 2 0 3-2 1-5 2-7 3-21 10-40 25-56 45-2 3-4 5-7 8l-2-1c-9-6-20-8-31-5-11 3-20 9-25 19-4 6-6 14-6 21 0 15 7 28 19 36l9 5c-5 20-8 41-9 63 0 22 2 43 7 63l-9 5c-12 7-20 21-20 36 0 8 2 15 6 22 6 10 14 16 25 19 11 3 22 1 31-4l2-1c2 3 4 6 6 8 16 19 34 35 55 46 18 10 38 15 58 17l0 11c0 6 4 10 10 11 6 0 10-5 10-10l0-11c20-1 40-6 58-16 21-10 40-25 56-45 2-3 4-5 7-8l2 1c9 6 20 8 31 5 11-3 20-9 25-19 4-6 6-14 6-21 0 0 0 0 0 0 0-15-7-28-19-36l-9-5c5-20 8-41 9-63 0-22-2-43-7-63l9-5c12-7 20-21 20-36 0-8-2-15-6-22-6-10-14-16-25-19-11-3-22-1-31 4l-2 1c-2-3-4-6-6-8-16-19-34-35-55-46-2-1-5-2-7-3 0-1 0-2 0-3C315 59 309 41 298 27 286 13 271 5 254 4 237 4 222 12 210 26Zm130 96-52 72-71-1-50-73c25-21 55-32 87-32 32 0 62 13 86 34zm-140 82-35 61-65-1c3-52 23-98 53-130l48 69zm122 73-36 61-70-1-34-62 36-61 70 1 34 62zm-158 9 34 62-49 68C119 383 100 336 98 285l65 1zm140 63 35-61 65 1c-3 52-23 98-53 130l-48-69zm35-82-34-62 49-68c29 33 48 79 50 131l-65-1 0 0zM89 188c-6-4-10-11-10-18 0-4 1-7 3-11 3-5 7-8 13-9 5-1 11 0 15 3l1 1c-7 12-13 24-18 38l-5-3zm19 209c-5 3-10 4-15 2-5-1-10-5-12-10-2-3-3-7-3-11 0-7 4-14 10-18l5-3c5 13 11 26 18 38l-1 1zm56 33 52-72 71 1 50 73c-25 21-55 32-87 32-32 0-62-13-86-34zm251-66c6 4 10 11 10 18 0 0 0 0 0 0 0 4-1 7-3 11-3 5-7 8-13 9-5 1-11 0-15-3l-1-1c7-12 13-24 18-38l5 3zM395 155c5-3 10-4 15-2 5 1 10 5 12 10 2 3 3 7 3 11 0 7-4 14-10 18l-5 3c-5-13-11-26-17-38l1-1zM294 73C281 69 267 67 254 67 240 67 226 69 213 72c2-27 20-47 41-47 21 0 39 21 40 48z"/>
</svg>
