<svg xmlns="http://www.w3.org/2000/svg" viewBox="0 0 462 462" width="512" height="512" fill="#999">
  <g transform="matrix(0.58868527 -0.65986463 0.59653188 0.65118496 -43.77921 241.89367)">
    <path d="m457 258-10-2c1-8 1-15 0-20l6 1c0 0 0 0 1 0 4 0 7-3 7-7 0-4-3-8-7-8l-17-2c0 0 0 0 0 0l-55-5c1-18-2-36-8-52l38-38c20-20 20-53 0-74-10-10-23-15-37-15-14 0-27 5-37 15l-39 39c-15-5-30-8-47-8-2 0-3 0-5 0L243 26 241 9c0-4-4-7-8-7-4 0-7 4-7 8l1 6c-5-1-12-2-20 0l-2-10c-1-4-5-6-9-5-4 1-6 5-5 9l2 10c-8 3-14 7-18 10l-2-5c-2-4-6-6-10-4-4 2-6 6-4 10l7 16 15 34c2 4 6 6 10 4 4-2 6-6 4-10L180 44c3-3 10-9 22-12 12-3 21-1 26 0l5 51c-37 5-72 23-100 51-16 16-28 34-37 53L46 165c0 0 0 0 0 0l-16-7c-4-2-8 0-10 4-2 4 0 8 4 10l5 2c-3 4-7 10-10 18l-10-2c-4-1-8 1-9 5-1 4 1 8 5 9l10 2c-1 8-1 15 0 20l-6-1c-4 0-8 3-8 7 0 4 3 8 7 8l17 2c0 0 0 0 0 0l37 3c0 0 0 0 1 0 4 0 7-3 7-7 0-4-3-8-7-8L32 228c-2-4-3-13 0-26 3-12 9-19 12-22l46 20c-4 12-7 25-8 38-3 34 5 65 23 90l-35 35c-4 4-6 9-6 15 0 6 2 11 6 15 4 4 9 6 15 6 0 0 0 0 0 0 6 0 11-2 15-6l35-35c22 15 48 24 76 24 5 0 9 0 14-1 13-1 26-4 38-8l20 46c-3 3-10 9-22 12-12 3-21 1-26 0l-3-33c0-4-4-7-8-7-4 0-7 4-7 8l3 37 2 17c0 4 4 7 7 7 0 0 0 0 1 0 4 0 7-4 7-8l-1-6c3 1 7 1 11 1 3 0 6 0 9-1l2 10c1 3 4 6 7 6 1 0 1 0 2 0 4-1 6-5 5-9l-2-10c8-3 14-7 18-10l2 5c1 3 4 5 7 5 1 0 2 0 3-1 4-2 6-6 4-10l-7-16-21-50c19-9 38-21 53-37 28-28 46-63 51-100l51 5c2 4 3 13 0 26-3 12-9 19-12 22l-30-13c-4-2-8 0-10 4-2 4 0 8 4 10l34 15c0 0 0 0 0 0l16 7c1 0 2 1 3 1 3 0 6-2 7-5 2-4 0-8-4-10l-5-2c3-4 7-10 10-18l10 2c1 0 1 0 2 0 3 0 6-2 7-6 1-4-1-8-5-9zM349 61c7-7 16-11 26-11 10 0 19 4 26 11 14 14 14 38 0 53l-34 34c-6-11-13-21-22-30-9-9-19-16-30-22L349 61ZM88 382c-1 1-2 2-4 2-1 0-3-1-4-2-1-1-2-2-2-4 0-1 1-3 2-4l33-33c1 1 3 3 4 4 1 1 3 3 4 4l-33 33zm230-63c-27 27-61 44-96 47-4 0-9 1-13 1-28 0-52-8-72-24 0 0 0 0 0 0-3-3-6-5-9-8-24-24-35-57-32-94 3-35 20-70 47-96 27-27 61-44 96-47 4 0 9-1 13-1 16 0 31 3 45 8 1 0 1 1 2 1 13 5 24 13 35 23 24 24 35 57 32 94-3 35-20 70-47 96z"/>
    <path d="m344 193-53 14-36-36 14-53c1-4-1-8-5-9-4-1-8 1-9 5l-15 57c-1 3 0 5 2 7l39 39-13 49-49 13-36-36 13-49 31-8c4-1 6-5 5-9-1-4-5-6-9-5l-31 8-28-28c-3-3-8-3-11 0-3 3-3 8 0 11l28 28-13 49-53 14c-4 1-6 5-5 9 1 4 5 6 9 5l53-14 36 36-14 53c-1 4 1 8 5 9 1 0 1 0 2 0 3 0 6-2 7-6l14-53 49-13 28 28c1 1 3 2 5 2 2 0 4-1 5-2 3-3 3-8 0-11l-28-28 13-49 53-14c4-1 6-5 5-9-1-4-5-6-9-5z"/>
  </g>
</svg>
