<svg xmlns="http://www.w3.org/2000/svg" viewBox="0 0 512 512" fill="rgb(0, 0, 0)">
  <g transform="matrix(0.00156069 -0.97881219 0.94117209 0.00162311 15.740419 507.17531)">
        <path d="m459 267c-6 0-11 5-11 11 0 6 5 11 11 11 6 0 11-5 11-11 0-6-5-11-11-11z"/>
        <path d="m459 224c-6 0-11 5-11 11 0 6 5 11 11 11 6 0 11-5 11-11 0-6-5-11-11-11z"/>
        <path d="m489 210c-14-12-32-18-52-18-1 0-2 0-3 0-1-2-2-5-3-7-11-22-26-41-46-58-3-2-6-5-8-7l1-2c6-10 8-21 5-32-3-11-10-20-19-26-7-4-14-6-22-6-15 0-29 8-37 21l-5 9c-21-6-42-8-65-8-22 0-44 3-65 8l-5-9c-8-13-22-21-37-21-8 0-15 2-22 6-10 6-17 15-19 26-3 11-1 23 5 32l1 2c-3 2-6 4-8 7-20 17-35 36-46 58-10 19-15 40-17 61l-11 0c-6 0-11 5-11 11 0 6 5 11 11 11l11 0c1 21 7 41 17 61 11 22 26 41 46 58 3 2 6 5 8 7l-1 2c-6 10-8 21-5 32 3 11 10 20 19 26 7 4 14 6 22 6 0 0 0 0 0 0 15 0 29-8 37-21l5-9c21 6 42 8 65 8 22 0 44-3 65-8l5 9c8 13 22 21 37 21 8 0 15-2 22-6 10-6 17-15 19-26 3-11 1-23-5-32l-1-2c3-2 6-4 8-7 20-17 35-36 46-58 1-2 2-5 3-7 1 0 2 0 3 0 20 0 38-6 52-18 15-12 23-28 23-46 0-17-8-34-23-46zM323 85c4-6 11-10 18-10 4 0 8 1 11 3 5 3 8 8 10 13 1 6 1 11-2 16l-1 1c-12-7-25-14-39-19l3-5zm-78 11c53 2 100 23 133 54l-70 51-63-36 0-68zM107 91c1-6 5-10 10-13 3-2 7-3 11-3 8 0 14 4 18 10l3 5c-14 5-26 11-39 19l-1-1c-3-5-4-11-2-16zm117 5 0 68-63 36-70-51C124 119 171 99 224 96ZM76 346C55 321 43 289 43 256 43 222 55 191 76 166l74 53 0 74-74 53zm70 81c-4 6-11 10-18 10 0 0 0 0 0 0-4 0-8-1-11-3-5-3-8-8-10-13-1-6 0-11 2-16l1-1c12 7 25 14 39 19l-3 5zm78-11C171 413 124 393 91 362l70-51 62 36 0 68zm11-87-63-36 0-73 63-36 63 36 0 73-63 36zm127 92c-1 6-5 10-10 13-3 2-7 3-11 3-8 0-14-4-18-10l-3-5c14-5 26-11 39-19l1 1c3 5 4 11 2 16zm-117-5 0-68 63-36 70 51c-33 31-80 51-133 54zm148-69-74-53 0-74 74-53c21 26 34 57 34 90 0 34-12 65-34 90zm49-48c4-14 6-28 6-42 0-14-2-29-6-42 27 2 49 20 49 42 0 22-21 41-49 42z"/>
  </g>
</svg>
