<svg xmlns="http://www.w3.org/2000/svg" viewBox="0 0 512 512" fill="rgb(0, 0, 0)">
  <g fill="rgb(0, 0, 0)">
    <g fill="rgb(0, 0, 0)">
      <g fill="rgb(0, 0, 0)">
        <circle cx="217" cy="65" r="7" fill="rgb(0, 0, 0)"/>
        <path d="M295 72c4 0 7-3 7-7 0-4-3-7-7-7 -4 0-7 3-7 7C288 69 291 72 295 72z" fill="rgb(0, 0, 0)"/>
        <path d="M510 109c3-3 3-8 0-12 -15-15-36-24-57-24s-42 8-57 24l-38 38c-12-10-24-18-39-24V67c0-35-28-63-63-63s-63 28-63 63v44c-14 6-27 14-39 24l-38-38c-15-15-36-24-57-24 -22 0-42 8-57 24 -3 3-3 8 0 12l95 95c2 2 5 4 8 6 -4 14-6 29-6 44v50c0 12 1 23 4 35l-53 53c-31 31-31 83 0 114 2 2 4 2 6 2 2 0 4-1 6-2l87-87c22 21 51 35 82 40l11 28c4 11 11 12 14 12 4 0 10-2 14-12l11-28c31-5 60-19 82-40l87 87c2 2 4 2 6 2 2 0 4-1 6-2 31-31 31-83 0-114l-53-53c3-11 4-23 4-35v-50c0-15-2-30-6-44 3-2 5-4 8-6L510 109zM209 67c0-26 21-47 47-47s47 21 47 47v38c-15-5-30-7-47-7s-32 2-47 7V67zM20 103c25-19 62-18 85 5l38 38c-13 14-24 30-31 48 -1 0-1-1-2-2L20 103zM56 488c-19-25-18-62 5-85l47-47c7 18 17 35 29 50L56 488zM256 478l-7-17c2 0 4 0 7 0 2 0 4 0 7 0L256 478zM256 445c-77 0-140-63-140-140v-50c0-77 63-140 140-140s140 63 140 140v50C396 382 333 445 256 445zM450 404c23 23 25 59 5 85l-81-81c13-15 23-31 29-50L450 404zM402 193c-1 1-1 1-2 2 -7-18-18-34-31-48l38-38c12-12 28-19 45-19 14 0 28 5 39 13L402 193z" fill="rgb(0, 0, 0)"/>
        <path d="M256 125c-72 0-131 59-131 131v48c0 72 59 131 131 131s131-59 131-131v-48C387 183 328 125 256 125zM256 141c22 0 42 6 59 17l-33 59h-52l-33-59C214 147 234 141 256 141zM282 234l26 46 -26 46h-53l-26-46 26-46H282zM142 255c0-35 16-67 41-88l32 58 -26 46h-47V255zM142 303v-16h47l26 46 -32 58C158 370 142 339 142 303zM256 417c-22 0-42-6-59-17l33-59h52l33 59C298 411 278 417 256 417zM370 303c0 35-16 67-41 88l-32-58 26-46h47V303zM370 271h-47l-26-46 32-58c25 21 41 53 41 88V271z" fill="rgb(0, 0, 0)"/>
      </g>
    </g>
  </g>
</svg>
