<svg xmlns="http://www.w3.org/2000/svg" viewBox="0 0 461 461" fill="rgb(0, 0, 0)">
  <path d="M450 195l-64-29c-1-1-3-1-4-1h-44l-23-41c-2-3-5-5-9-5h-42v-13l25-30c3-4 3-9 0-13l-50-60C236 1 233 0 230 0s-6 1-8 4l-50 60c-3 4-3 9 0 13l25 30v13h-42c-4 0-7 2-9 5l-23 41H79c-1 0-3 0-4 1l-64 29c-4 2-6 5-6 9v25c0 6 4 10 10 10h66l-9 15c-2 3-2 7 0 10l22 38 -12 7c-1 1-2 1-3 2l-51 63c-3 3-3 8-1 11l13 22c1 2 4 4 6 5 3 1 5 0 8-1l77-45 16 27c2 3 5 5 9 5h38l28 56c2 3 5 6 9 6s7-2 9-6l28-56h38c4 0 7-2 9-5l16-28 78 45c2 1 5 2 8 1 3-1 5-2 6-5l13-22c2-4 2-8-1-11l-51-63c-1-1-2-2-3-2l-13-7 22-38c2-3 2-7 0-10l-9-15h66c6 0 10-4 10-10v-25C456 200 453 197 450 195zM193 70l37-45 37 45 -22 26c-1 2-2 4-2 6v16h-26v-16c0-2-1-5-2-6L193 70zM25 219v-9l56-25h31l-20 34H25zM52 389l-4-7 45-56 11-6 17 30L52 389zM230 428l-15-29h29L230 428zM368 326l45 56 -4 7 -69-40 17-30L368 326zM299 379H161L92 259l69-120h138l69 120L299 379zM436 219h-67l-20-34h31l56 25V219zM241 259c0 6-4 10-10 10h-2c-6 0-10-4-10-10s4-10 10-10h2C237 249 241 254 241 259zM254 208h-48c-4 0-7 2-9 5l-24 41c-2 3-2 7 0 10l24 41c2 3 5 5 9 5h48c4 0 7-2 9-5l24-41c2-3 2-7 0-10l-24-41C261 210 258 208 254 208zM248 291h-36l-18-31 18-31h36l18 31L248 291zM289 168c-2-3-5-5-9-5h-100c-4 0-7 2-9 5l-50 86c-2 3-2 7 0 10l50 86c2 3 5 5 9 5h100c4 0 7-2 9-5l50-86c2-3 2-7 0-10L289 168zM274 336h-88l-44-76 44-76h88l44 76L274 336z" fill="rgb(0, 0, 0)"/>
</svg>
