<svg xmlns="http://www.w3.org/2000/svg" viewBox="0 0 512 512" fill="rgb(0, 0, 0)">
  <g fill="rgb(0, 0, 0)">
    <g fill="rgb(0, 0, 0)">
      <path d="M424 201c-2 0-3 0-5 0 -20-43-57-77-102-93V64c0-34-28-62-62-62 -34 0-62 28-62 62v44c-45 16-81 50-102 93 -2 0-3 0-5 0C39 201 0 240 0 289c0 6 5 10 10 10h67c5 39 22 74 47 102 -9 15-13 33-12 51 2 21 11 40 25 55 2 2 5 3 7 3s5-1 7-3l56-56c15 4 31 6 48 6 17 0 34-2 49-7l56 56c2 2 5 3 7 3 3 0 5-1 7-3 15-15 24-34 25-55 1-18-3-37-13-53 25-27 42-62 46-100h67c6 0 10-5 10-10C512 240 473 201 424 201zM76 277c0 0 0 1 0 1H21c5-31 31-56 63-57C79 239 76 258 76 277zM214 64c0-23 19-42 42-42S298 41 298 64v38c-13-3-27-5-42-5 -14 0-28 2-42 5V64zM120 362c-15-25-24-54-24-85 0-32 9-62 26-87l23 23c2 2 5 3 7 3s5-1 7-3c4-4 4-10 0-14l-25-25c29-35 73-57 122-57 49 0 93 22 122 57l-43 43 -69-40v-11c0-6-5-10-10-10 -6 0-10 5-10 10v11l-77 44c-3 2-5 5-5 9v89L120 362zM146 485c-15-20-17-47-6-70 14 12 30 22 47 29L146 485zM247 437c-46-3-87-25-114-58l42-42 72 42V437zM184 319v-83L256 195l72 41v83L256 360 184 319zM267 437v-60l69-40 43 43C352 412 312 434 267 437zM368 485l-42-42c17-7 33-17 47-29C386 437 384 464 368 485zM391 363l-43-43v-87l42-42c16 25 26 55 26 87C416 309 407 338 391 363zM436 278c0 0 0-1 0-1 0-20-3-38-9-56 32 2 59 26 63 57H436z" fill="rgb(0, 0, 0)"/>
    </g>
  </g>
  <g fill="rgb(0, 0, 0)">
    <g fill="rgb(0, 0, 0)">
      <path d="M256 125c-6 0-10 5-10 10v2c0 6 5 10 10 10 6 0 10-5 10-10v-2C266 130 262 125 256 125z" fill="rgb(0, 0, 0)"/>
    </g>
  </g>
</svg>
