<svg xmlns="http://www.w3.org/2000/svg" viewBox="0 0 493 493" fill="rgb(0, 0, 0)">
  <path d="M463 168c0-29-33-51-76-51 -18 0-36 4-49 12 -13-10-28-18-45-23 6-14 9-29 9-44C302 19 274 0 247 0s-56 19-56 62c0 15 3 30 9 44 -16 5-31 13-45 23 -14-8-31-12-49-12 -43 0-76 22-76 51 0 13 11 22 32 26 12 2 27 3 41 4 -6 17-10 35-10 54 0 25 6 53 16 80 -8 2-16 6-24 10 -17 10-31 23-38 38 -8 16-9 32-2 44 3 5 7 8 13 10 2 1 5 1 8 1 20 0 49-16 81-34 0 0 1 0 1-1 27 34 58 53 90 56v27c0 5 4 9 9 9 5 0 9-4 9-8v-27c32-3 63-23 90-56 0 0 1 0 1 1 32 19 61 34 81 34 3 0 5 0 8-1 6-2 10-5 13-10 14-25-3-61-40-82 -8-4-16-8-24-10 10-27 16-55 16-80 0-19-3-37-10-54 14 0 29-1 41-4C452 191 463 182 463 168zM383 252c0 3 0 6 0 9h-64l-30-51 54-54C368 181 383 215 383 252zM342 376l-51-51 27-47h63C375 311 362 347 342 376zM113 278h62l27 47 -51 51C132 346 118 310 113 278zM110 252c0-36 14-69 38-94l54 54 -28 48h-64C111 258 110 255 110 252zM247 116c32 0 61 11 84 29l-58 58h-56l-56-56C184 128 214 116 247 116zM218 319l-29-49 29-49h57l29 49 -29 49H218zM208 62c0-28 15-45 39-45s39 17 39 45c0 13-3 28-9 40 -10-2-19-3-30-3 -10 0-20 1-30 3C211 90 208 76 208 62zM66 178c-12-2-18-6-18-10 0-19 27-34 59-34 13 0 25 2 35 7 -12 12-23 25-31 41C96 182 79 181 66 178zM67 419c-1 0-3 0-4 0 -2 0-2-1-3-2 -4-7-3-17 2-28 6-12 18-23 32-31 7-4 15-7 22-9 6 13 13 26 21 37 0 1 1 1 1 2C117 399 83 419 67 419zM247 441c-32 0-62-21-85-51l54-54h62l54 54C308 420 279 441 247 441zM399 358c28 16 43 43 34 59 0 1-1 1-3 2 -14 4-52-18-75-31 0-1 1-1 1-2 8-12 15-24 21-37C384 350 392 353 399 358zM383 182c-8-15-18-29-31-41 10-4 22-7 35-7 32 0 59 16 59 34 0 4-7 7-18 10C414 181 397 182 383 182z" fill="rgb(0, 0, 0)"/>
</svg>
