<svg xmlns="http://www.w3.org/2000/svg" viewBox="0 0 512 512" fill="rgb(0, 0, 0)">
  <g fill="rgb(0, 0, 0)">
    <g fill="rgb(0, 0, 0)">
      <path d="M509 189c-19-32-60-47-90-55 -4-1-8 2-9 6 -1 4 2 8 6 9 26 6 59 18 77 42 -10 6-32 16-68 8 -10-26-26-50-45-69 -19-19-43-34-67-43 2-6 2-13 2-20C314 31 288 0 255 0c-32 0-59 31-59 68 0 7 1 13 2 20 -24 8-46 22-64 40 -8 1-29 3-52 9 -39 11-65 28-79 52 -2 3-1 7 1 10 1 1 21 19 58 19 6 0 11 0 18-1 -7 22-10 44-10 68 0 49 15 95 43 133 -10 13-33 49-33 87 0 2 1 4 3 6 1 1 3 2 5 2 0 0 1 0 1 0 1 0 16-2 34-10 21-9 36-21 44-37 16 9 32 16 50 20 4 1 8-2 9-6 1-4-2-8-6-9 -18-4-36-12-52-23 -14-10-28-22-39-36 -28-35-44-80-44-128 0-26 5-51 14-75 10-26 25-49 44-68 19-19 43-33 68-41 14-4 29-7 44-7 15 0 30 2 44 7 25 8 49 22 68 42 19 19 34 42 43 68 9 24 13 49 13 75 0 47-15 92-43 127 -11 14-24 26-39 36 -26 18-57 27-87 27 -4 0-8 3-8 8 0 4 3 8 8 8 31 0 62-9 89-25 8 16 24 28 45 37 18 7 34 10 34 10 0 0 1 0 1 0 2 0 4-1 5-2 2-1 3-4 3-6 0-39-25-76-34-88 27-37 43-83 43-132 0-23-3-46-10-68 7 1 13 1 19 1 37 0 57-18 58-19C510 197 510 193 509 189zM155 457c-12 24-43 34-58 38 3-28 19-53 27-65C133 440 144 449 155 457zM87 200c-35 7-57-2-66-8 10-13 29-28 66-39 12-3 23-5 32-7C106 162 95 180 87 200zM297 83c-13-3-27-5-41-5 -14 0-28 2-41 5 -1-5-2-10-2-15 0-29 19-53 43-53 24 0 43 24 43 53C298 74 298 79 297 83zM415 495c-16-4-46-14-58-38 11-8 21-17 30-28C396 440 412 467 415 495z" fill="rgb(0, 0, 0)"/>
    </g>
  </g>
  <g fill="rgb(0, 0, 0)">
    <g fill="rgb(0, 0, 0)">
      <path d="M348 303l-38-26 23-40c2-3 1-6-1-9 -2-2-5-4-8-3l-44 14 -17-43c-1-3-4-5-7-5 0 0 0 0 0 0 -3 0-6 2-7 5l-17 43 -44-14c-3-1-6 0-8 3 -2 2-2 6-1 9l23 40 -38 26c-3 2-4 5-3 8 1 3 3 5 6 6l46 7 -3 46c0 3 2 6 4 8 1 1 2 1 3 1 2 0 4-1 5-2l34-31 34 31c2 2 6 3 9 1 3-1 5-4 4-8l-3-46 46-7c3 0 6-3 6-6C352 308 351 304 348 303zM290 309c-4 1-7 4-7 8l2 34 -25-23c-3-3-8-3-11 0l-25 23 2-34c0-4-3-8-7-8l-33-5 28-19c3-2 4-7 2-10l-17-29 32 10c4 1 8-1 10-5l12-31 12 31c1 4 6 6 10 5l32-10 -17 29c-2 4-1 8 2 10l28 19L290 309z" fill="rgb(0, 0, 0)"/>
    </g>
  </g>
  <g fill="rgb(0, 0, 0)">
    <g fill="rgb(0, 0, 0)">
      <path d="M391 227c-2-4-6-6-10-4 -4 2-6 6-4 10 7 16 10 33 10 51 0 73-59 132-132 132 -28 0-54-9-77-25 -3-3-8-2-11 2 -3 3-2 8 2 11 25 18 55 28 86 28 81 0 148-66 148-148C403 265 399 245 391 227z" fill="rgb(0, 0, 0)"/>
    </g>
  </g>
  <g fill="rgb(0, 0, 0)">
    <g fill="rgb(0, 0, 0)">
      <path d="M371 193c-28-36-70-56-116-56 -81 0-148 66-148 148 0 36 13 70 36 97 2 2 4 3 6 3 2 0 4-1 5-2 3-3 4-8 1-11 -21-24-32-55-32-87 0-73 59-132 132-132 41 0 78 18 103 50 3 3 8 4 11 1C373 201 374 196 371 193z" fill="rgb(0, 0, 0)"/>
    </g>
  </g>
</svg>
