<svg xmlns="http://www.w3.org/2000/svg" viewBox="0 0 512 512" width="512" height="512" fill="rgb(0, 0, 0)">
  <g fill="#555488">
    <path d="M501 193c0 0-28 26-83 13l-1 0c-10-27-26-51-45-71l1-1C373 136 469 141 501 193z" fill="#555488"/>
    <path d="M388 416c0 0 35 42 35 87 0 0-60-8-76-50l0-1c15-10 29-23 40-38L388 416z" fill="#555488"/>
    <path d="M306 70c0 9-2 17-4 25 -15-5-30-7-46-7s-32 2-46 7c-3-7-4-16-4-25 0-33 23-61 51-61S306 36 306 70z" fill="#555488"/>
  </g>
  <path d="M231 70c0-28 16-51 37-58 -4-1-9-2-13-2 -28 0-51 27-51 61 0 9 2 17 4 25 8-2 17-4 25-5C232 83 231 76 231 70z" fill="#3d3c60"/>
  <g fill="#555488">
    <path d="M139 136c-19 19-35 43-45 71 -54 13-83-13-83-13C42 141 137 136 139 136z" fill="#555488"/>
    <path d="M124 416c12 15 25 27 41 38 -16 42-76 50-76 50C88 459 123 417 124 416z" fill="#555488"/>
  </g>
  <ellipse cx="255" cy="284" rx="177" ry="198" fill="#0fbbee"/>
  <polygon points="344 309 291 317 295 371 255 334 216 371 220 317 167 309 211 279 184 232 236 248 255 198 275 248 326 232 300 279 " fill="#ff209f"/>
  <circle cx="221" cy="55" r="9" fill="rgb(0, 0, 0)"/>
  <circle cx="290" cy="55" r="9" fill="rgb(0, 0, 0)"/>
  <path d="M138 136c20-20 44-35 71-43 15-5 30-7 46-7s32 2 46 7c27 8 51 23 71 44 19 19 35 43 45 71 9 24 14 50 14 77 0 51-17 97-45 132 -12 15-25 27-40 38 -27 18-58 29-92 29 -33 0-64-10-91-28 -15-10-29-23-41-38 -28-35-45-82-45-133 0-28 5-54 14-78C103 179 119 155 138 136zM395 284c0-77-63-140-140-140 -77 0-140 63-140 140 0 77 63 140 140 140C333 424 395 362 395 284z" fill="#fd9ce2"/>
  <path d="M509 189c-19-32-60-47-90-55 -4-1-8 2-9 6 -1 4 2 8 6 9 26 6 59 18 77 42 -10 6-32 16-68 8 -10-26-26-50-45-69 -19-19-43-34-67-43 2-6 2-13 2-20C314 31 288 0 255 0c-32 0-59 31-59 68 0 7 1 13 2 20 -24 8-46 22-64 40 -8 1-29 3-52 9 -39 11-65 28-79 52 -2 3-1 7 1 10 1 1 21 19 58 19 6 0 11 0 18-1 -7 22-10 44-10 68 0 49 15 95 43 133 -10 13-33 49-33 87 0 2 1 4 3 6 1 1 3 2 5 2 0 0 1 0 1 0 1 0 16-2 34-10 21-9 36-21 44-37 16 9 32 16 50 20 4 1 8-2 9-6 1-4-2-8-6-9 -18-4-36-12-52-23 -14-10-28-22-39-36 -28-35-44-80-44-128 0-26 5-51 14-75 10-26 25-49 44-68 19-19 43-33 68-41 14-4 29-7 44-7 15 0 30 2 44 7 25 8 49 22 68 42 19 19 34 42 43 68 9 24 13 49 13 75 0 47-15 92-43 127 -11 14-24 26-39 36 -26 18-57 27-87 27 -4 0-8 3-8 8 0 4 3 8 8 8 31 0 62-9 89-25 8 16 24 28 45 37 18 7 34 10 34 10 0 0 1 0 1 0 2 0 4-1 5-2 2-1 3-4 3-6 0-39-25-76-34-88 27-37 43-83 43-132 0-23-3-46-10-68 7 1 13 1 19 1 37 0 57-18 58-19C510 197 510 193 509 189zM155 457c-12 24-43 34-58 38 3-28 19-53 27-65C133 440 144 449 155 457zM87 200c-35 7-57-2-66-8 10-13 29-28 66-39 12-3 23-5 32-7C106 162 95 180 87 200zM214 83c-1-5-2-10-2-15 0-29 19-53 43-53 24 0 43 24 43 53 0 5-1 10-2 15 -13-3-27-5-41-5C241 78 228 80 214 83zM357 457c11-8 21-17 30-28 8 12 25 38 28 66C400 491 369 481 357 457z"/>
  <path d="M166 317l46 7 -3 46c0 3 2 6 4 8 1 1 2 1 3 1 2 0 4-1 5-2l34-31 34 31c2 2 6 3 9 1 3-1 5-4 4-8l-3-46 46-7c3 0 6-3 6-6 1-3-1-6-3-8l-38-26 23-40c2-3 1-6-1-9 -2-2-5-4-8-3l-44 14 -17-43c-1-3-4-5-7-5 0 0 0 0 0 0 -3 0-6 2-7 5l-17 43 -44-14c-3-1-6 0-8 3 -2 2-2 6-1 9l23 40 -38 26c-3 2-4 5-3 8S163 316 166 317zM216 285c3-2 4-7 2-10l-17-29 32 10c4 1 8-1 10-5l12-31 12 31c1 4 6 6 10 5l32-10 -17 29c-2 4-1 8 2 10l28 19 -33 5c-4 1-7 4-7 8l2 34 -25-23c-3-3-8-3-11 0l-25 23 2-34c0-4-3-8-7-8l-33-5L216 285z" fill="rgb(0, 0, 0)"/>
  <path d="M169 404c25 18 55 28 86 28 81 0 148-66 148-148 0-20-4-39-11-57 -2-4-6-6-10-4 -4 2-6 6-4 10 7 16 10 33 10 51 0 73-59 132-132 132 -28 0-54-9-77-25 -3-3-8-2-11 2C165 397 166 402 169 404z" fill="rgb(0, 0, 0)"/>
  <path d="M255 152c41 0 78 18 103 50 3 3 8 4 11 1 3-3 4-8 1-11 -28-36-70-56-116-56 -81 0-148 66-148 148 0 36 13 70 36 97 2 2 4 3 6 3 2 0 4-1 5-2 3-3 4-8 1-11 -21-24-32-55-32-87C123 212 183 152 255 152z" fill="rgb(0, 0, 0)"/>
</svg>
