<svg xmlns="http://www.w3.org/2000/svg" x="0" y="0" viewBox="0 0 450 450" width="512" height="512" style="fill:rgb(0, 0, 0);version:1.1">
  <metadata/>
  <defs/>
  <path d="m194 372 15 2c5 1 11 1 16 1 4 0 7 0 11 0L250 373 223 426 194 372Z" style="fill-opacity:1;fill:#e2f4c7"/>
  <path d="m350 176c-17-2-37-4-60-5l-7 0 0-7c-1-24-3-45-5-62l-2-15 13 6c31 15 55 40 70 71l6 13-14-2z" style="fill-opacity:1;fill:#eae374"/>
  <path d="m283 278c1-32 1-66 0-98l0-9 9 0c27 1 51 3 68 6l5 1 2 5c4 14 7 29 7 44 0 17-3 33-8 49l-2 5-5 1c-17 2-40 4-66 5l-9 0 0-9z" style="fill-opacity:1;fill:#fc913a"/>
  <path d="m278 351c2-16 3-35 4-57l0-7 7 0c23-1 42-2 58-4l15-2-7 13c-14 28-38 52-67 66l-13 6 2-15z" style="fill-opacity:1;fill:#eae374"/>
  <path d="m225 375c-16 0-32-3-47-8l-5-2-1-5c-2-17-4-39-5-65l0-9 9 0c16 1 32 1 49 1 17 0 33 0 49-1l9 0 0 9c-1 26-3 48-5 65l-1 5-5 2c-15 5-31 8-47 8z" style="fill-opacity:1;fill:#f9d62e"/>
  <path d="m225 288c-17 0-34 0-50-1l-7 0 0-7c-1-32-1-68 0-101l0-7 7 0c16-1 33-1 50-1 17 0 34 0 50 1l7 0 0 7c1 32 1 68 0 101l0 7-7 0c-16 1-33 1-50 1z" style="fill-opacity:1;fill:#ff4e50"/>
  <path d="m274 171c-16 0-32-1-49-1-17 0-33 0-49 1l-9 0 0-9c1-28 3-52 6-69l1-5 5-2c15-5 30-7 46-7 16 0 31 2 46 7l5 2 1 5c3 17 5 41 6 69l0 9-9 0z" style="fill-opacity:1;fill:#f9d62e"/>
  <path d="m91 165c14-31 39-56 70-71l13-6-2 15c-2 17-4 38-5 62l0 7-7 0c-24 1-44 3-60 5l-14 2 6-13z" style="fill-opacity:1;fill:#eae374"/>
  <path d="m158 286c-26-1-49-3-66-5l-5-1-2-5C80 260 77 244 77 227c0-15 2-30 7-44l2-5 5-1c17-2 41-4 68-6l9 0 0 9c-1 32-1 66 0 98l0 9-9 0z" style="fill-opacity:1;fill:#fc913a"/>
  <path d="M160 360C131 345 108 322 93 294l-7-13 15 2c16 2 36 3 58 4l7 0 0 7c1 22 2 41 4 57l2 15-13-6z" style="fill-opacity:1;fill:#eae374"/>
  <path d="m124 442c-7 0-14-3-19-8l-52-52c-11-11-11-28 0-39l44-44 5 8c7 10 15 20 24 28l6 6-21 21 33 33c5 5 8 12 8 19 0 7-3 14-8 19-5 5-12 8-19 8z" style="fill-opacity:1;fill:#e2f4c7"/>
  <path d="m326 442c-7 0-14-3-19-8-5-5-8-12-8-19 0-7 3-14 8-19l33-33-21-21 6-6c9-8 17-18 24-28l5-8 44 44c11 11 11 28 0 39l-52 52c-5 5-12 8-19 8z" style="fill-opacity:1;fill:#e2f4c7"/>
  <path d="m400 142c-7 0-14-3-19-8l-33-33-20 20-6-5c-9-8-20-15-31-21l-10-5 48-48c5-5 12-8 19-8 7 0 14 3 19 8l52 52c5 5 8 12 8 19 0 7-3 14-8 19-5 5-12 8-19 8z" style="fill-opacity:1;fill:#e2f4c7"/>
  <path d="M256 83C246 81 235 80 225 80c-11 0-21 1-31 3l-10 2 0-38c0-22 17-39 39-39l4 0c22 0 39 17 39 39l0 38-10-2z" style="fill-opacity:1;fill:#e2f4c7"/>
  <path d="m50 142c-7 0-14-3-19-8C25 128 22 121 22 114 22 107 25 100 30 95L82 43C87 37 94 35 102 35c7 0 14 3 19 8l48 48-10 5c-11 6-22 13-31 21l-6 5-20-20-33 33C64 139 57 142 50 142Z" style="fill-opacity:1;fill:#e2f4c7"/>
  <g style="fill-opacity:1;fill:#000">
    <path d="m375 139c7 7 16 10 25 10 9 0 18-4 25-10 7-7 10-16 10-25 0-9-4-18-10-25l-52-52C366 30 357 27 348 27c-9 0-18 4-25 10l-44 44c0 0 0 0 0 0-2-1-3-1-5-2l0-32c0-26-21-47-47-47l-4 0c-26 0-47 21-47 47l0 32c-2 1-3 1-5 2 0 0 0 0 0 0l-44-44c-7-7-16-10-25-10-9 0-18 4-25 10l-52 52C18 96 14 105 14 114c0 9 4 18 10 25 7 7 16 10 25 10 9 0 18-4 25-10l27-27 9 9C85 149 69 186 69 227c0 25 6 49 17 70l-40 40c-14 14-14 36 0 50l52 52c7 7 16 10 25 10 9 0 18-4 25-10 7-7 10-16 10-25 0-9-4-18-10-25L122 362 132 352c16 12 35 21 56 26l28 52c1 3 4 4 7 4l0 0c3 0 6-2 7-4l26-51c23-5 44-14 62-28l10 10-27 27c-7 7-10 16-10 25 0 9 4 18 10 25 7 7 16 10 25 10 9 0 18-4 25-10l52-52c14-14 14-36 0-50l-40-40c11-21 17-45 17-70 0-41-16-78-41-106l9-9 27 27zM107 95c-1-1-4-2-6-2-2 0-4 1-6 2L63 128c-4 4-9 6-14 6-5 0-10-2-14-6C32 124 30 119 30 114c0-5 2-10 6-14l52-52c4-4 9-6 14-6 5 0 10 2 14 6L155 88c-12 6-23 14-33 22l-15-15zM85 227c0-15 2-29 6-42 18-3 41-4 67-6-1 32-1 67 0 99-25-1-48-3-66-5-5-14-8-30-8-46zm52 173c4 4 6 9 6 14 0 5-2 10-6 14-4 4-9 6-14 6-5 0-10-2-14-6l-52-52c-8-8-8-20 0-28l37-37c7 11 16 21 25 30l-15 15c-1 2-2 4-2 6 0 2 1 4 2 6l33 33zM100 290c17 2 37 3 59 4 1 21 2 41 4 58-27-13-49-35-63-62zm59-126c-23 1-44 3-61 5 14-29 37-53 66-67-2 17-4 39-5 62zM192 47c0-17 14-31 31-31l4 0c17 0 31 14 31 31l0 28c-11-2-22-4-33-4-11 0-22 1-33 4l0-28zm-11 47c14-5 28-7 44-7 15 0 30 2 44 7 3 18 5 42 6 69-32-1-67-1-99 0 1-27 3-50 6-68zm41 315-15-28c6 1 11 1 17 1 4 0 8 0 12 0l-14 27zm46-50c-14 5-29 7-44 7-15 0-30-3-44-7-2-17-4-40-5-64 16 1 33 1 49 1 17 0 33 0 49-1-1 25-3 47-5 64zm6-80c-32 1-68 1-100 0-1-32-1-68 0-100 32-1 68-1 100 0 1 32 1 68 0 100zm11 73c2-17 3-36 4-58 22-1 42-2 59-4-14 27-36 49-63 62zm106-4c8 8 8 20 0 28l-52 52c-4 4-9 6-14 6-5 0-10-2-14-6-4-4-6-9-6-14 0-5 2-10 6-14l33-33c2-1 2-4 2-6 0-2-1-4-2-6l-15-15c10-9 18-19 25-30l37 37zM364 227c0 16-3 32-8 46-18 2-41 4-66 5 1-32 1-67 0-99 26 1 49 3 67 6 4 13 6 27 6 42zm-13-59c-17-2-38-4-61-5-1-23-3-45-5-62 29 14 52 38 66 67zM327 110C317 102 306 94 294 88L334 48c4-4 9-6 14-6 5 0 10 2 14 6l52 52c4 4 6 9 6 14 0 5-2 10-6 14-4 4-9 6-14 6-5 0-10-2-14-6L354 95c-1-1-4-2-6-2-2 0-4 1-6 2l-15 15z" style="fill-opacity:1;fill:#000"/>
    <path d="m248 122c-1 0-1 0-2 0-14-3-29-3-43 0-4 1-9-2-9-6-1-4 2-9 6-9 16-3 33-3 49 0 4 1 7 5 6 9-1 4-4 6-8 6z" style="fill-opacity:1;fill:#000"/>
    <path d="m225 350c-8 0-17-1-25-2-4-1-7-5-6-9 1-4 5-7 9-6 14 3 29 3 43 0 4-1 9 2 9 6 1 4-2 9-6 9-8 2-16 2-25 2z" style="fill-opacity:1;fill:#000"/>
    <path d="m112 258c-4 0-7-3-8-6-2-8-2-16-2-25 0-8 1-17 2-25 1-4 5-7 9-6 4 1 7 5 6 9-1 7-2 14-2 22 0 7 1 14 2 21 1 4-2 9-6 9-1 0-1 0-2 0z" style="fill-opacity:1;fill:#000"/>
    <path d="m338 258c-1 0-1 0-2 0-4-1-7-5-6-9 1-7 2-14 2-21 0-7-1-14-2-22-1-4 2-9 6-9 4-1 9 2 9 6 2 8 2 16 2 25 0 8-1 17-2 25-1 4-4 6-8 6z" style="fill-opacity:1;fill:#000"/>
  </g>
</svg>
