<svg xmlns="http://www.w3.org/2000/svg" viewBox="0 0 462 462" width="24" height="24" fill="rgb(0, 0, 0)">
  <g transform="matrix(0.67140536 -0.65655701 0.65944216 0.66846787 -75.761307 239.94152)">
    <path d="m241 89 0 0c-1 0-1 0-2 0-15 1-29 5-43 10l-24-57c0 0 8-13 29-18 21-5 34 2 34 2l6 62z" fill="#028900"/>
    <path d="m43 172 57 24c-6 14-9 28-10 43 0 1 0 1 0 2l-62-6c0 0-8-13-2-34 5-21 18-29 18-29z" fill="#028900"/>
    <path d="m123 339c3 3 6 6 10 9l-39 39c-5 5-13 5-19 0-5-5-5-13 0-19l39-39c3 3 6 7 9 10z" fill="#028900"/>
    <path d="m266 363 24 57c0 0-8 13-29 18-21 5-34-2-34-2l-6-62c1 0 1 0 2 0 15-1 29-5 43-10z" fill="#028900"/>
    <path d="m436 227c0 0 8 13 2 34-5 21-18 29-18 29l-57-24c6-14 9-28 10-43 0-1 0-1 0-2l0 0 62 6z" fill="#028900"/>
    <path d="m406 56c17 17 17 46 0 63l-42 42 0 0c-6-14-14-27-25-38-11-11-24-19-38-25l42-42c17-17 46-17 63 0z" fill="#028900"/>
    <polygon points="246 174 288 216 273 273 216 288 174 246 189 189 " fill="#00ff83"/>
    <path d="m216 288-23 84c-23-3-43-11-60-25-3-3-7-6-10-9-3-3-6-6-9-10-14-17-22-38-25-60l84-23 42 42z" fill="#adff00"/>
    <path d="m363 266c-8 21-22 41-39 58l-51-51 15-57 84-23c1 9 1 19 1 28 0 1 0 1 0 2-1 15-5 29-10 43z" fill="#74d600"/>
    <path d="m196 99c14-6 28-9 43-10 1 0 1 0 2 0 10-1 19-1 28 1l-23 84-57 15-51-51c17-17 37-30 58-39z" fill="#00d27f"/>
    <path d="m89 241c0-1 0-1 0-2 1-15 5-29 10-43 8-21 22-41 39-58l51 51-15 57-84 23c-1-9-1-19-1-28z" fill="#74d600"/>
    <path d="m221 373c-10 1-19 1-28-1l23-84 57-15 51 51c-17 17-37 30-58 39-14 6-28 9-43 10-1 0-1 0-2 0z" fill="#00d27f"/>
    <path d="m373 193-84 23-42-42 23-84c11 1 22 4 32 8 14 6 27 14 38 25 11 11 19 24 25 38 4 10 7 21 8 32z" fill="#adff00"/>
    <path d="m457 258-10-2c1-8 1-15 0-20l6 1c0 0 0 0 1 0 4 0 7-3 7-7 0-4-3-8-7-8l-17-2c0 0-55-5-55-5 1-18-2-36-8-52l38-38c20-20 20-53 0-74-10-10-23-15-37-15-14 0-27 5-37 15l-39 39c-15-5-30-8-47-8-2 0-3 0-5 0L243 26 241 9c0-4-4-7-8-7-4 0-7 4-7 8l1 6c-5-1-12-2-20 0l-2-10c-1-4-5-6-9-5-4 1-6 5-5 9l2 10c-8 3-14 7-18 10l-2-5c-2-4-6-6-10-4-4 2-6 6-4 10l7 16 15 34c2 4 6 6 10 4 4-2 6-6 4-10L180 44c3-3 10-9 22-12 12-3 21-1 26 0l5 51c-37 5-72 23-100 51-16 16-28 34-37 53L46 165c0 0-16-7-16-7-4-2-8 0-10 4-2 4 0 8 4 10l5 2c-3 4-7 10-10 18l-10-2c-4-1-8 1-9 5-1 4 1 8 5 9l10 2c-1 8-1 15 0 20l-6-1c-4 0-8 3-8 7 0 4 3 8 7 8l17 2c0 0 37 3 37 3 0 0 0 0 1 0 4 0 7-3 7-7 0-4-3-8-7-8L32 228c-2-4-3-13 0-26 3-12 9-19 12-22l46 20c-4 12-7 25-8 38-3 34 5 65 23 90l-35 35c-4 4-6 9-6 15 0 6 2 11 6 15 4 4 9 6 15 6 6 0 11-2 15-6l35-35c22 15 48 24 76 24 5 0 9 0 14-1 13-1 26-4 38-8l20 46c-3 3-10 9-22 12-12 3-21 1-26 0l-3-33c0-4-4-7-8-7-4 0-7 4-7 8l3 37 2 17c0 4 4 7 7 7 0 0 0 0 1 0 4 0 7-4 7-8l-1-6c3 1 7 1 11 1 3 0 6 0 9-1l2 10c1 3 4 6 7 6 1 0 1 0 2 0 4-1 6-5 5-9l-2-10c8-3 14-7 18-10l2 5c1 3 4 5 7 5 1 0 2 0 3-1 4-2 6-6 4-10l-7-16-21-50c19-9 38-21 53-37 28-28 46-63 51-100l51 5c2 4 3 13 0 26-3 12-9 19-12 22l-30-13c-4-2-8 0-10 4-2 4 0 8 4 10l34 15c0 0 16 7 16 7 1 0 2 1 3 1 3 0 6-2 7-5 2-4 0-8-4-10l-5-2c3-4 7-10 10-18l10 2c1 0 1 0 2 0 3 0 6-2 7-6 1-4-1-8-5-9zM349 61c7-7 16-11 26-11 10 0 19 4 26 11 14 14 14 38 0 53l-34 34c-6-11-13-21-22-30-9-9-19-16-30-22L349 61ZM88 382c-1 1-2 2-4 2-1 0-3-1-4-2-1-1-2-2-2-4 0-1 1-3 2-4l33-33c1 1 3 3 4 4 1 1 3 3 4 4l-33 33zm230-63c-27 27-61 44-96 47-4 0-9 1-13 1-28 0-52-8-72-24 0 0 0 0 0 0-3-3-6-5-9-8-24-24-35-57-32-94 3-35 20-70 47-96 27-27 61-44 96-47 4 0 9-1 13-1 16 0 31 3 45 8 1 0 1 1 2 1 13 5 24 13 35 23 24 24 35 57 32 94-3 35-20 70-47 96z"/>
    <path d="m344 193-53 14-36-36 14-53c1-4-1-8-5-9-4-1-8 1-9 5l-15 57c-1 3 0 5 2 7l39 39-13 49-49 13-36-36 13-49 31-8c4-1 6-5 5-9-1-4-5-6-9-5l-31 8-28-28c-3-3-8-3-11 0-3 3-3 8 0 11l28 28-13 49-53 14c-4 1-6 5-5 9 1 4 5 6 9 5l53-14 36 36-14 53c-1 4 1 8 5 9 1 0 1 0 2 0 3 0 6-2 7-6l14-53 49-13 28 28c1 1 3 2 5 2 2 0 4-1 5-2 3-3 3-8 0-11l-28-28 13-49 53-14c4-1 6-5 5-9-1-4-5-6-9-5z"/>
  </g>
</svg>
