<?xml version="1.0" encoding="UTF-8" standalone="no"?>
<svg
   xmlns:dc="http://purl.org/dc/elements/1.1/"
   xmlns:cc="http://creativecommons.org/ns#"
   xmlns:rdf="http://www.w3.org/1999/02/22-rdf-syntax-ns#"
   xmlns:svg="http://www.w3.org/2000/svg"
   xmlns="http://www.w3.org/2000/svg"
   xmlns:sodipodi="http://sodipodi.sourceforge.net/DTD/sodipodi-0.dtd"
   xmlns:inkscape="http://www.inkscape.org/namespaces/inkscape"
   width="120"
   height="30"
   id="svg2"
   version="1.1"
   inkscape:version="0.91 r13725"
   sodipodi:docname="logo-logo-grayscale.svg">
  <metadata
     id="metadata30">
    <rdf:RDF>
      <cc:Work
         rdf:about="">
        <dc:format>image/svg+xml</dc:format>
        <dc:type
           rdf:resource="http://purl.org/dc/dcmitype/StillImage" />
        <dc:title></dc:title>
      </cc:Work>
    </rdf:RDF>
  </metadata>
  <defs
     id="defs28" />
  <sodipodi:namedview
     pagecolor="#ffffff"
     bordercolor="#666666"
     borderopacity="1"
     objecttolerance="10"
     gridtolerance="10"
     guidetolerance="10"
     inkscape:pageopacity="0"
     inkscape:pageshadow="2"
     inkscape:window-width="1074"
     inkscape:window-height="753"
     id="namedview26"
     showgrid="false"
     inkscape:zoom="1.9681139"
     inkscape:cx="34.917434"
     inkscape:cy="46.528495"
     inkscape:window-x="2645"
     inkscape:window-y="39"
     inkscape:window-maximized="0"
     inkscape:current-layer="svg2" />
  <path
     d="M6.071 22.575h2.04V6.889H6.07V4.643h8.143v2.246h-2.038v15.686h4.065v-4.48h2.039V15.85h2.039v8.972H6.07v-2.246z"
     fill="#333333"
     id="path4"
     style="fill:#333333" />
  <path
     d="M26.447 9.122v11.22h2.038v2.233h2.04v-2.233h2.026V9.122h-2.027V6.89h-2.039v2.233h-2.038zm-4.066 0h2.039V6.89h2.027V4.643h6.104v2.246h2.039v2.233h2.038v11.22H34.59v2.233H32.55v2.246h-6.104v-2.246H24.42v-2.233H22.38V9.122z"
     fill="#333333"
     id="path6"
     style="fill:#333333" />
  <path
     d="M38.691 9.122h2.039l.25-2.233h1.777l.262-2.246h7.88v2.246h2.04v4.48H48.86v-4.48h-4.066v2.233h-2.038v11.22h2.038v2.233h4.066v-4.48h-2.027V15.85h6.104v8.972H42.757v-2.246H40.73v-2.233H38.69V9.122z"
     fill="#333333"
     id="path8"
     style="fill:#333333" />
  <path
     d="M59.066 9.122v11.22h2.04v2.233h2.038v-2.233h2.027V9.122h-2.027V6.89h-2.039v2.233h-2.039zm-4.065 0h2.039V6.89h2.026V4.643h6.105v2.246h2.038v2.233h2.039v11.22h-2.039v2.233h-2.038v2.246h-6.105v-2.246H57.04v-2.233H55V9.122z"
     fill="#333333"
     id="path10"
     style="fill:#333333" />
  <path
     d="M104.39 21.346c1.715-.814 1.3-2.986.11-4.078-.72-.865 1.188-1.132.868-2.245 1.167-.906 2.644-1.44 3.646-2.627 1.073-1.066.998-2.991 1.66-4.068 1.813.11 1.3-1.936.433-2.837-2.048-2.622-6.748-1.622-7.66 1.633-.292 1.127.458 2.98-1.009 3.31-1.303-1.454-2.779-2.772-4.564-3.518-3.606-1.8-8.052-1.287-11.253 1.204-2.183 1.611-3.736 4.055-4.481 6.743-.576 2.02-2.71-.009-4.032.332-.773 1.18.635 2.776 1.662 3.35 1.368.34 1.056 2.671 2.808 2.487.646-.05-.012.797.01 1.176-.67 1.2-.016 2.762 1.27 3.038 1.618.177 3.657-.87 3.58-2.836.023-.755-.167-1.49-.283-2.229l12.624-2.48c.45 1.37.595 3.21 2.088 3.748.822.204 1.715.148 2.523-.103zm-2.3-1.28c-.784-.6-.693-1.739-.917-2.64.81-.141 1.828-.573 2.339.413.98.69 1.548 2.83-.277 2.578-.398-.016-.81-.107-1.144-.35zm-18.064 3.931c-.93-.619-.065-1.852.095-2.726-.006-.683.63-.593 1.095-.71.387.02 1.187-.523 1.044.22.014 1.035.429 2.45-.649 3.03-.496.224-1.07.545-1.585.186zm-1.73-4.328c-.672-1.244 1.824-.95 2.51-1.344 6.123-1.23 12.24-2.508 18.392-3.556 1.167-.49 1.425.911.177.92-4.9 1.199-9.875 2.032-14.813 3.034-2.03.343-4.046.875-6.101.998l-.165-.052zm22.155-6.15c-1.131-.522-1.713-2.283-.35-2.88.981-1.075.037-2.628.762-3.79 1.11-2.09 4.434-2.502 5.644-.298.653.557-.147.569-.602.71-.918-.016-2.337.976-.799 1.377.497.284-.328 1.411-.337 1.938-.614 1.658-2.255 2.391-3.658 3.128-.227-.03-.443-.114-.66-.185zm3.497-6.649c-.167-1.375-1.663.11-.465.307l.29-.12.175-.187zM81.107 17.82c-.8-.17-2.539-1.397-.754-1.006.785-.286 2.387 1.031.932 1.054l-.178-.05zm15.616-4.837c-1.49-.945-1-2.512-.056-3.695.36-1.011 1.073-1.763 1.923-.747 1.725 1.126 3.192 2.753 4.026 4.715-1.5.579-3.12.736-4.68 1.085-.405-.453-.81-.905-1.213-1.358zm-7.453 2.424c.318-.747.597-1.513.875-2.278l4.334-.851c.64.72 1.414 1.366 1.921 2.176-1.42.606-3.002.726-4.5 1.073l-2.927.575.297-.695zm-6.23 1.224a11.18 11.18 0 0 1 2.87-6.39c1.15.703 2.122 1.69 3.17 2.551-.439 1.206-.934 2.387-1.425 3.569l-4.627.91.013-.64zm5.364-5.954L86.84 9.371c1.116-.83 2.23-1.772 3.652-1.888 1.646-.31 3.361-.868 5.003-.225.476.128 1.217.137.628.74l-1.74 3.122-4.417.862-1.563-1.305z"
     fill="#333333"
     id="path12"
     style="fill:#333333" />
</svg>
