<?xml version="1.0" encoding="UTF-8" standalone="no"?>
<svg
   xmlns:dc="http://purl.org/dc/elements/1.1/"
   xmlns:cc="http://creativecommons.org/ns#"
   xmlns:rdf="http://www.w3.org/1999/02/22-rdf-syntax-ns#"
   xmlns:svg="http://www.w3.org/2000/svg"
   xmlns="http://www.w3.org/2000/svg"
   xmlns:sodipodi="http://sodipodi.sourceforge.net/DTD/sodipodi-0.dtd"
   xmlns:inkscape="http://www.inkscape.org/namespaces/inkscape"
   width="120"
   height="30"
   id="svg2"
   version="1.1"
   inkscape:version="0.91 r13725"
   sodipodi:docname="Logo-Logo.svg">
  <metadata
     id="metadata30">
    <rdf:RDF>
      <cc:Work
         rdf:about="">
        <dc:format>image/svg+xml</dc:format>
        <dc:type
           rdf:resource="http://purl.org/dc/dcmitype/StillImage" />
      </cc:Work>
    </rdf:RDF>
  </metadata>
  <defs
     id="defs28" />
  <sodipodi:namedview
     pagecolor="#ffffff"
     bordercolor="#666666"
     borderopacity="1"
     objecttolerance="10"
     gridtolerance="10"
     guidetolerance="10"
     inkscape:pageopacity="0"
     inkscape:pageshadow="2"
     inkscape:window-width="1074"
     inkscape:window-height="753"
     id="namedview26"
     showgrid="false"
     inkscape:zoom="3.9362277"
     inkscape:cx="93.175187"
     inkscape:cy="56.850491"
     inkscape:window-x="2645"
     inkscape:window-y="39"
     inkscape:window-maximized="0"
     inkscape:current-layer="svg2" />
  <path
     d="M6.071 22.575h2.04V6.889H6.07V4.643h8.143v2.246h-2.038v15.686h4.065v-4.48h2.039V15.85h2.039v8.972H6.07v-2.246z"
     fill="#8000ff"
     id="path4" />
  <path
     d="M26.447 9.122v11.22h2.038v2.233h2.04v-2.233h2.026V9.122h-2.027V6.89h-2.039v2.233h-2.038zm-4.066 0h2.039V6.89h2.027V4.643h6.104v2.246h2.039v2.233h2.038v11.22H34.59v2.233H32.55v2.246h-6.104v-2.246H24.42v-2.233H22.38V9.122z"
     fill="#00e6e6"
     id="path6" />
  <path
     d="M38.691 9.122h2.039l.25-2.233h1.777l.262-2.246h7.88v2.246h2.04v4.48H48.86v-4.48h-4.066v2.233h-2.038v11.22h2.038v2.233h4.066v-4.48h-2.027V15.85h6.104v8.972H42.757v-2.246H40.73v-2.233H38.69V9.122z"
     fill="red"
     id="path8" />
  <path
     d="M59.066 9.122v11.22h2.04v2.233h2.038v-2.233h2.027V9.122h-2.027V6.89h-2.039v2.233h-2.039zm-4.065 0h2.039V6.89h2.026V4.643h6.105v2.246h2.038v2.233h2.039v11.22h-2.039v2.233h-2.038v2.246h-6.105v-2.246H57.04v-2.233H55V9.122z"
     fill="#0f0"
     id="path10" />
  <path
     d="M104.39 21.346c1.715-.814 1.3-2.986.11-4.078-.72-.865 1.188-1.132.868-2.245 1.167-.906 2.644-1.44 3.646-2.627 1.073-1.066.998-2.991 1.66-4.068 1.813.11 1.3-1.936.433-2.837-2.048-2.622-6.748-1.622-7.66 1.633-.292 1.127.458 2.98-1.009 3.31-1.303-1.454-2.779-2.772-4.564-3.518-3.606-1.8-8.052-1.287-11.253 1.204-2.183 1.611-3.736 4.055-4.481 6.743-.576 2.02-2.71-.009-4.032.332-.773 1.18.635 2.776 1.662 3.35 1.368.34 1.056 2.671 2.808 2.487.646-.05-.012.797.01 1.176-.67 1.2-.016 2.762 1.27 3.038 1.618.177 3.657-.87 3.58-2.836.023-.755-.167-1.49-.283-2.229l12.624-2.48c.45 1.37.595 3.21 2.088 3.748.822.204 1.715.148 2.523-.103zm-2.3-1.28c-.784-.6-.693-1.739-.917-2.64.81-.141 1.828-.573 2.339.413.98.69 1.548 2.83-.277 2.578-.398-.016-.81-.107-1.144-.35zm-18.064 3.931c-.93-.619-.065-1.852.095-2.726-.006-.683.63-.593 1.095-.71.387.02 1.187-.523 1.044.22.014 1.035.429 2.45-.649 3.03-.496.224-1.07.545-1.585.186zm-1.73-4.328c-.672-1.244 1.824-.95 2.51-1.344 6.123-1.23 12.24-2.508 18.392-3.556 1.167-.49 1.425.911.177.92-4.9 1.199-9.875 2.032-14.813 3.034-2.03.343-4.046.875-6.101.998l-.165-.052zm22.155-6.15c-1.131-.522-1.713-2.283-.35-2.88.981-1.075.037-2.628.762-3.79 1.11-2.09 4.434-2.502 5.644-.298.653.557-.147.569-.602.71-.918-.016-2.337.976-.799 1.377.497.284-.328 1.411-.337 1.938-.614 1.658-2.255 2.391-3.658 3.128-.227-.03-.443-.114-.66-.185zm3.497-6.649c-.167-1.375-1.663.11-.465.307l.29-.12.175-.187zM81.107 17.82c-.8-.17-2.539-1.397-.754-1.006.785-.286 2.387 1.031.932 1.054l-.178-.05zm15.616-4.837c-1.49-.945-1-2.512-.056-3.695.36-1.011 1.073-1.763 1.923-.747 1.725 1.126 3.192 2.753 4.026 4.715-1.5.579-3.12.736-4.68 1.085-.405-.453-.81-.905-1.213-1.358zm-7.453 2.424c.318-.747.597-1.513.875-2.278l4.334-.851c.64.72 1.414 1.366 1.921 2.176-1.42.606-3.002.726-4.5 1.073l-2.927.575.297-.695zm-6.23 1.224a11.18 11.18 0 0 1 2.87-6.39c1.15.703 2.122 1.69 3.17 2.551-.439 1.206-.934 2.387-1.425 3.569l-4.627.91.013-.64zm5.364-5.954L86.84 9.371c1.116-.83 2.23-1.772 3.652-1.888 1.646-.31 3.361-.868 5.003-.225.476.128 1.217.137.628.74l-1.74 3.122-4.417.862-1.563-1.305z"
     id="path12" />
  <path
     d="M83.12 16.51c.09-.962.43-2.218.873-3.229.371-.848 1.353-2.392 1.74-2.738.214-.191.227-.191.538.004.176.11.867.662 1.536 1.228l1.216 1.028-.4 1.018c-.22.56-.534 1.351-.698 1.76l-.298.742-2.085.405c-1.147.222-2.176.427-2.288.456-.19.048-.199.004-.135-.675z"
     fill="#0ff"
     id="path14" />
  <path
     d="M97.036 13.297c-1.105-1.171-1.163-1.267-1.168-1.926-.003-.52.057-.67.925-2.313.213-.404.791-.997.97-.996.258.002 1.814 1.224 2.681 2.106.791.804 2.024 2.597 2.024 2.944 0 .135-.207.234-.84.403-.69.184-3.442.747-3.633.743-.03 0-.461-.433-.959-.96z"
     fill="#0ff"
     id="path16" />
  <path
     d="M89.641 14.605l.566-1.448 1.95-.386c1.073-.213 2.046-.386 2.163-.385.2.001 1.84 1.648 1.942 1.948.065.193-1.1.501-4.105 1.086-1.504.293-2.814.555-2.909.582-.132.038-.039-.293.393-1.397z"
     fill="#ff0"
     id="path18" />
  <path
     d="M82.272 19.462c-.168-.43.2-.621 1.771-.923.44-.084 3.267-.652 6.284-1.263 3.016-.61 6.802-1.351 8.413-1.647 1.61-.297 3.406-.63 3.99-.74.978-.186 1.075-.188 1.25-.031.23.205.244.384.04.55-.208.171-3.566.93-7.942 1.793-8.136 1.607-12.024 2.328-12.858 2.387-.776.054-.884.04-.948-.126z"
     fill="#0f0"
     id="path20" />
  <path
     d="M88.885 11.022a134.222 134.222 0 0 0-1.524-1.284l-.456-.372.832-.588c1.214-.856 1.608-1.02 3.272-1.358 2.22-.452 3.02-.49 4.206-.202.534.13.994.273 1.021.316.027.043-.388.861-.923 1.818l-.972 1.739-2.034.383c-1.119.21-2.106.4-2.193.42-.088.022-.641-.371-1.229-.872z"
     fill="#0f0"
     id="path22" />
  <path
     d="M104.542 13.483c-.447-.192-.979-.821-1.115-1.319-.143-.525.046-1.03.506-1.353.527-.37.664-.798.667-2.083.002-1.256.137-1.697.749-2.46.412-.513 1.464-1.035 2.247-1.114.98-.1 1.712.176 2.453.922.34.344.619.692.619.775 0 .142-.594.368-.972.37-.095 0-.336.067-.535.149-.795.328-.961.935-.33 1.21.435.188.436.307.007 1.577-.317.942-.384 1.049-1.091 1.74-.724.709-2.347 1.738-2.724 1.729-.088-.003-.304-.067-.48-.143zm3.304-6.473c.16-.174.172-.256.072-.472-.155-.337-.583-.352-.812-.03-.206.292-.206.343.002.548.228.224.506.207.738-.046zM80.635 17.561c-.602-.276-.958-.534-.958-.692 0-.158 1.273-.004 1.617.195.45.26.616.532.406.665-.244.153-.429.124-1.065-.168zM84.08 23.933c-.481-.289-.525-.647-.202-1.644.148-.457.27-.906.27-.996.003-.363.282-.537 1.11-.691.457-.085.856-.131.886-.102.03.03.076.564.102 1.188.061 1.432-.068 1.735-.917 2.16-.686.342-.808.35-1.25.085zM102.394 20.15c-.562-.252-.821-.728-1.021-1.871l-.148-.845.381-.062c.21-.035.603-.063.874-.064.453 0 .53.04.99.526.526.554.908 1.25.912 1.66.003.269-.178.66-.36.78-.224.147-1.184.074-1.628-.125z"
     fill="#ff0"
     id="path24" />
  <path
     style="fill:#00ff00;fill-opacity:1"
     d="M 88.491296,10.685197 C 87.674509,10.007111 87.002863,9.4177244 86.99875,9.3754491 86.988111,9.266106 88.349612,8.3307748 88.995102,8.0039846 c 0.745762,-0.3775542 3.431154,-0.9140632 4.66499,-0.9320088 0.846412,-0.012311 2.341227,0.266008 2.58404,0.481121 0.02395,0.021213 -0.394367,0.8143612 -0.929582,1.762551 -0.69268,1.2271562 -1.05299,1.7428312 -1.250275,1.7893912 -0.329468,0.07776 -4.058711,0.826768 -4.075974,0.818653 -0.0066,-0.0031 -0.680219,-0.56041 -1.497005,-1.238495 z"
     id="path3362"
     inkscape:connector-curvature="0" />
</svg>
