<?xml version="1.0" encoding="UTF-8" standalone="no"?>
<svg
   xmlns:dc="http://purl.org/dc/elements/1.1/"
   xmlns:cc="http://creativecommons.org/ns#"
   xmlns:rdf="http://www.w3.org/1999/02/22-rdf-syntax-ns#"
   xmlns:svg="http://www.w3.org/2000/svg"
   xmlns="http://www.w3.org/2000/svg"
   xmlns:sodipodi="http://sodipodi.sourceforge.net/DTD/sodipodi-0.dtd"
   xmlns:inkscape="http://www.inkscape.org/namespaces/inkscape"
   width="80"
   height="80"
   id="svg2"
   version="1.1"
   inkscape:version="0.91 r13725"
   sodipodi:docname="square-logo.svg">
  <metadata
     id="metadata30">
    <rdf:RDF>
      <cc:Work
         rdf:about="">
        <dc:format>image/svg+xml</dc:format>
        <dc:type
           rdf:resource="http://purl.org/dc/dcmitype/StillImage" />
        <dc:title></dc:title>
      </cc:Work>
    </rdf:RDF>
  </metadata>
  <defs
     id="defs28" />
  <sodipodi:namedview
     pagecolor="#ffffff"
     bordercolor="#666666"
     borderopacity="1"
     objecttolerance="10"
     gridtolerance="10"
     guidetolerance="10"
     inkscape:pageopacity="0"
     inkscape:pageshadow="2"
     inkscape:window-width="1186"
     inkscape:window-height="855"
     id="namedview26"
     showgrid="false"
     inkscape:zoom="3.9362277"
     inkscape:cx="53.308632"
     inkscape:cy="67.012505"
     inkscape:window-x="2532"
     inkscape:window-y="40"
     inkscape:window-maximized="0"
     inkscape:current-layer="svg2" />
  <path
     d="m 8.071,70.575 2.04,0 0,-15.686 -2.041,0 0,-2.246 8.143,0 0,2.246 -2.038,0 0,15.686 4.065,0 0,-4.48 2.039,0 0,-2.245 2.039,0 0,8.972 -14.248,0 0,-2.246 z"
     id="path4"
     inkscape:connector-curvature="0"
     style="fill:#8000ff" />
  <path
     d="m 28.447,57.122 0,11.22 2.038,0 0,2.233 2.04,0 0,-2.233 2.026,0 0,-11.22 -2.027,0 0,-2.232 -2.039,0 0,2.233 -2.038,0 z m -4.066,0 2.039,0 0,-2.232 2.027,0 0,-2.247 6.104,0 0,2.246 2.039,0 0,2.233 2.038,0 0,11.22 -2.038,0 0,2.233 -2.04,0 0,2.246 -6.104,0 0,-2.246 -2.026,0 0,-2.233 -2.04,0 0,-11.22 z"
     id="path6"
     inkscape:connector-curvature="0"
     style="fill:#00e6e6" />
  <path
     d="m 40.691,57.122 2.039,0 0.25,-2.233 1.777,0 0.262,-2.246 7.88,0 0,2.246 2.04,0 0,4.48 -4.079,0 0,-4.48 -4.066,0 0,2.233 -2.038,0 0,11.22 2.038,0 0,2.233 4.066,0 0,-4.48 -2.027,0 0,-2.245 6.104,0 0,8.972 -10.18,0 0,-2.246 -2.027,0 0,-2.233 -2.04,0 0,-11.221 z"
     id="path8"
     inkscape:connector-curvature="0"
     style="fill:#ff0000" />
  <path
     d="m 61.066,57.122 0,11.22 2.04,0 0,2.233 2.038,0 0,-2.233 2.027,0 0,-11.22 -2.027,0 0,-2.232 -2.039,0 0,2.233 -2.039,0 z m -4.065,0 2.039,0 0,-2.232 2.026,0 0,-2.247 6.105,0 0,2.246 2.038,0 0,2.233 2.039,0 0,11.22 -2.039,0 0,2.233 -2.038,0 0,2.246 -6.105,0 0,-2.246 -2.026,0 0,-2.233 -2.04,0 0,-11.22 z"
     id="path10"
     inkscape:connector-curvature="0"
     style="fill:#00ff00" />
  <path
     d="m 57.396469,38.194802 c 2.944829,-1.416781 2.232232,-5.197185 0.188881,-7.09783 -1.236313,-1.505547 2.039917,-1.970265 1.490444,-3.907461 2.003857,-1.576909 4.540016,-2.506345 6.260552,-4.572339 1.842449,-1.855392 1.713667,-5.205887 2.850388,-7.080425 3.113104,0.191457 2.232231,-3.369641 0.743505,-4.937847 -3.516624,-4.563637 -11.587,-2.823119 -13.152996,2.842265 -0.501394,1.961563 0.786432,5.186741 -1.732556,5.761112 -2.237383,-2.530712 -4.771824,-4.824714 -7.83685,-6.12314 -6.191867,-3.132931 -13.8261,-2.240046 -19.322541,2.095583 -3.748432,2.803973 -6.41509,7.057797 -7.694331,11.736308 -0.98905,3.515845 -4.653345,-0.01566 -6.923352,0.577852 -1.32732,2.05381 1.090359,4.831676 2.853822,5.830733 2.348995,0.591776 1.813259,4.648922 4.82162,4.328666 1.109248,-0.08703 -0.0206,1.387193 0.01717,2.046849 -1.150457,2.08862 -0.02747,4.807309 2.180719,5.287691 2.77827,0.308072 6.27944,-1.51425 6.147223,-4.936107 0.03949,-1.31409 -0.286756,-2.593371 -0.48594,-3.879613 l 21.676687,-4.316483 c 0.772696,2.384509 1.021675,5.587061 3.585308,6.523459 1.411457,0.355066 2.944828,0.257597 4.332246,-0.179273 z M 53.447136,35.96694 c -1.346207,-1.044311 -1.189951,-3.02676 -1.574582,-4.594966 1.390852,-0.245413 3.138861,-0.997317 4.0163,0.718834 1.68276,1.200956 2.658073,4.925664 -0.475637,4.487053 -0.683406,-0.02785 -1.390852,-0.186235 -1.964364,-0.609181 z m -31.017718,6.841973 c -1.596904,-1.07738 -0.111611,-3.223438 0.163125,-4.74465 -0.0103,-1.188773 1.081774,-1.032127 1.880226,-1.235767 0.664518,0.03481 2.038199,-0.910291 1.792653,0.382913 0.02404,1.801436 0.736637,4.264268 -1.114398,5.273768 -0.851683,0.389876 -1.837299,0.948582 -2.721606,0.323736 z m -2.970585,-7.532959 c -1.153892,-2.165203 3.131993,-1.653491 4.309924,-2.339255 10.513811,-2.140836 21.01732,-4.365217 31.580927,-6.18928 2.003858,-0.852853 2.44687,1.585612 0.303927,1.601276 -8.413796,2.086881 -16.956375,3.536732 -25.435421,5.28073 -3.485716,0.596997 -6.947392,1.522953 -10.476035,1.737036 l -0.283322,-0.09051 z M 57.501212,24.571773 c -1.942041,-0.90855 -2.941394,-3.973601 -0.600985,-5.01269 1.684476,-1.871056 0.06353,-4.57408 1.308431,-6.596561 1.905983,-3.637681 7.613627,-4.354774 9.69132,-0.518674 1.121267,0.969468 -0.252414,0.990354 -1.033695,1.235767 -1.576299,-0.02785 -4.012866,1.698745 -1.371964,2.396693 0.853399,0.494307 -0.563209,2.45587 -0.578663,3.373122 -1.0543,2.885778 -3.872064,4.161577 -6.281157,5.444338 -0.389782,-0.05222 -0.760676,-0.198419 -1.133287,-0.321995 z m 6.004704,-11.5727 c -0.286756,-2.393211 -2.85554,0.191457 -0.798452,0.534339 l 0.497959,-0.208862 0.300493,-0.325477 z M 17.417199,32.057738 c -1.373681,-0.295888 -4.35972,-2.431503 -1.294694,-1.750961 1.347925,-0.497788 4.098721,1.794474 1.600338,1.834506 l -0.305644,-0.08703 z m 26.814254,-8.418883 c -2.558481,-1.644788 -1.717101,-4.372179 -0.09616,-6.431211 0.618156,-1.759663 1.842449,-3.068532 3.301986,-1.300166 2.961999,1.959822 5.480987,4.791644 6.913049,8.206539 -2.575652,1.007759 -5.357356,1.28102 -8.036034,1.888461 -0.695426,-0.788454 -1.390852,-1.575168 -2.082844,-2.363623 z m -12.797556,4.219014 c 0.546039,-1.300166 1.02511,-2.633402 1.502464,-3.964898 l 7.441917,-1.48118 c 1.098945,1.253172 2.427981,2.377546 3.298552,3.787365 -2.438284,1.054754 -5.154738,1.263616 -7.726956,1.867576 l -5.025956,1.000797 0.509979,-1.20966 z m -10.697541,2.130394 a 19.197193,19.458984 0 0 1 4.928081,-11.121906 c 1.974667,1.223584 3.643689,2.941474 5.443211,4.44006 -0.753807,2.099064 -1.603772,4.154614 -2.446869,6.211906 l -7.945028,1.583871 0.02232,-1.113931 z m 9.210532,-10.36304 -2.685547,-2.273116 c 1.916285,-1.444629 3.829136,-3.084197 6.270854,-3.286097 2.826349,-0.53956 5.771178,-1.510769 8.590658,-0.391616 0.81734,0.222786 2.089712,0.238451 1.07834,1.287983 L 40.213436,20.396272 32.629,21.896598 29.945171,19.625223 Z"
     id="path12"
     inkscape:connector-curvature="0" />
  <path
     d="m 20.873724,29.77766 c 0.154539,-1.674378 0.738354,-3.860467 1.49903,-5.62013 0.637044,-1.475959 2.323238,-4.163318 2.987756,-4.765537 0.36746,-0.332439 0.389782,-0.332439 0.923801,0.007 0.302209,0.191457 1.488726,1.152223 2.637467,2.137356 l 2.087995,1.789251 -0.68684,1.771847 c -0.377762,0.97469 -0.916932,2.351439 -1.198537,3.06331 l -0.511696,1.291464 -3.580156,0.70491 c -1.969515,0.386395 -3.736413,0.743201 -3.928728,0.793676 -0.326249,0.08355 -0.341703,0.007 -0.231809,-1.174849 z"
     id="path14"
     inkscape:connector-curvature="0"
     style="fill:#00ffff" />
  <path
     d="m 44.768906,24.185378 c -1.897397,-2.038146 -1.996989,-2.205236 -2.005574,-3.352236 -0.0052,-0.905069 0.09788,-1.166147 1.588319,-4.025817 0.365742,-0.703169 1.358227,-1.735296 1.665588,-1.733555 0.443012,0.0035 3.114822,2.130393 4.603548,3.665529 1.358228,1.399376 3.475413,4.520124 3.475413,5.124083 0,0.23497 -0.35544,0.407281 -1.442365,0.701429 -1.1848,0.320255 -5.910262,1.300166 -6.238229,1.293204 -0.05151,0 -0.791583,-0.753644 -1.6467,-1.670897 z"
     id="path16"
     inkscape:connector-curvature="0"
     style="fill:#00ffff" />
  <path
     d="m 32.070942,26.461975 0.971879,-2.52027 3.348348,-0.671839 c 1.84245,-0.37073 3.513189,-0.67184 3.71409,-0.670099 0.34342,0.0017 3.159466,2.868372 3.334611,3.390527 0.111611,0.33592 -1.888812,0.872 -7.048701,1.890202 -2.58252,0.509972 -4.831923,0.965987 -4.995048,1.012981 -0.226657,0.06614 -0.06697,-0.509971 0.674821,-2.431502 z"
     id="path18"
     inkscape:connector-curvature="0"
     style="fill:#ffff00" />
  <path
     d="m 19.417622,34.915667 c -0.288473,-0.748422 0.343421,-1.080861 3.040987,-1.606497 0.755524,-0.146204 5.60977,-1.134818 10.790264,-2.198274 5.178778,-1.061715 11.679724,-2.351439 14.445974,-2.866632 2.764533,-0.516933 5.848447,-1.096526 6.851234,-1.287983 1.679325,-0.323736 1.845884,-0.327217 2.146377,-0.05396 0.394933,0.356806 0.418972,0.668359 0.06868,0.957285 -0.357157,0.297628 -6.123184,1.618681 -13.637219,3.120748 -13.970336,2.797011 -20.646426,4.051924 -22.078489,4.154614 -1.33247,0.09399 -1.517917,0.06962 -1.627812,-0.219305 z"
     id="path20"
     inkscape:connector-curvature="0"
     style="fill:#00ff00" />
  <path
     d="M 30.772813,20.225701"
     id="path22"
     inkscape:connector-curvature="0"
     style="fill:#00ff00" />
  <path
     d="m 57.657469,24.509114 c -0.767545,-0.334179 -1.681043,-1.428965 -1.914568,-2.295742 -0.245546,-0.913772 0.07899,-1.792733 0.868853,-2.35492 0.904912,-0.643992 1.140155,-1.388933 1.145306,-3.625498 0.0034,-2.186089 0.235243,-2.953658 1.286109,-4.281672 0.707446,-0.892886 2.513837,-1.801436 3.858327,-1.938937 1.682759,-0.174051 2.939677,0.306331 4.212049,1.604757 0.583815,0.598738 1.062886,1.204438 1.062886,1.348901 0,0.247154 -1.019958,0.640511 -1.669022,0.643992 -0.163125,0 -0.576946,0.116614 -0.918649,0.259337 -1.365096,0.570889 -1.650135,1.627383 -0.566644,2.106026 0.746939,0.327217 0.748656,0.534339 0.01202,2.744796 -0.544321,1.639567 -0.659367,1.825802 -1.873358,3.0285 -1.243181,1.234026 -4.030037,3.025019 -4.677384,3.009354 -0.151105,-0.0052 -0.521999,-0.116615 -0.824208,-0.248894 z m 5.673302,-11.266368 c 0.274736,-0.30285 0.295342,-0.445573 0.123632,-0.821525 -0.266151,-0.586554 -1.00107,-0.612662 -1.394287,-0.05222 -0.353723,0.508231 -0.353723,0.596997 0.0034,0.953803 0.391499,0.389876 0.868853,0.360287 1.26722,-0.08006 z M 16.606728,31.606944 c -1.033695,-0.480383 -1.644983,-0.929437 -1.644983,-1.204438 0,-0.275002 2.18587,-0.007 2.776552,0.339401 0.772696,0.452534 1.057735,0.925955 0.697143,1.157444 -0.418972,0.266299 -0.736636,0.215824 -1.828712,-0.292407 z m 5.915414,11.090576 c -0.825926,-0.503009 -0.901479,-1.126115 -0.346855,-2.86141 0.254131,-0.795417 0.463617,-1.576909 0.463617,-1.733556 0.0052,-0.631807 0.484223,-0.934657 1.905983,-1.202697 0.784715,-0.147944 1.469839,-0.228008 1.521352,-0.177533 0.05151,0.05222 0.130499,0.981652 0.175144,2.067735 0.104743,2.49242 -0.116763,3.019797 -1.574582,3.759517 -1.177931,0.595257 -1.387418,0.609181 -2.146376,0.147944 z m 31.446993,-6.584377 c -0.965011,-0.43861 -1.40974,-1.267097 -1.75316,-3.256508 l -0.254131,-1.470737 0.654215,-0.107912 c 0.360591,-0.06092 1.035412,-0.109653 1.500747,-0.111393 0.777847,0 0.910063,0.06962 1.69993,0.915512 0.903195,0.964247 1.559128,2.175647 1.565996,2.889259 0.0052,0.468199 -0.305644,1.148741 -0.618156,1.357603 -0.384631,0.255856 -2.033048,0.128798 -2.795441,-0.217564 z"
     id="path24"
     inkscape:connector-curvature="0"
     style="fill:#ffff00" />
  <path
     style="fill:#00ff00;fill-opacity:1"
     d="m 30.096784,19.63949 c -1.402506,-1.180221 -2.555791,-2.206059 -2.562853,-2.279639 -0.01827,-0.190314 2.319567,-1.818274 3.427939,-2.387057 1.280549,-0.657141 5.891639,-1.590945 8.01026,-1.622178 1.453375,-0.02143 4.020124,0.462991 4.437059,0.837399 0.04112,0.03692 -0.677169,1.41741 -1.596187,3.067751 -1.189402,2.135886 -1.80809,3.033427 -2.146849,3.114466 -0.56573,0.135342 -6.969218,1.439004 -6.99886,1.42488 -0.01133,-0.0054 -1.168005,-0.975404 -2.570509,-2.155622 z"
     id="path3362"
     inkscape:connector-curvature="0" />
</svg>
