<?xml version="1.0" encoding="UTF-8" standalone="no"?>
<svg
   xmlns:dc="http://purl.org/dc/elements/1.1/"
   xmlns:cc="http://creativecommons.org/ns#"
   xmlns:rdf="http://www.w3.org/1999/02/22-rdf-syntax-ns#"
   xmlns:svg="http://www.w3.org/2000/svg"
   xmlns="http://www.w3.org/2000/svg"
   xmlns:sodipodi="http://sodipodi.sourceforge.net/DTD/sodipodi-0.dtd"
   xmlns:inkscape="http://www.inkscape.org/namespaces/inkscape"
   width="80"
   height="80"
   id="svg2"
   version="1.1"
   inkscape:version="0.91 r13725"
   sodipodi:docname="square-logo-light.svg">
  <metadata
     id="metadata30">
    <rdf:RDF>
      <cc:Work
         rdf:about="">
        <dc:format>image/svg+xml</dc:format>
        <dc:type
           rdf:resource="http://purl.org/dc/dcmitype/StillImage" />
        <dc:title></dc:title>
      </cc:Work>
    </rdf:RDF>
  </metadata>
  <defs
     id="defs28" />
  <sodipodi:namedview
     pagecolor="#ffffff"
     bordercolor="#666666"
     borderopacity="1"
     objecttolerance="10"
     gridtolerance="10"
     guidetolerance="10"
     inkscape:pageopacity="0"
     inkscape:pageshadow="2"
     inkscape:window-width="1074"
     inkscape:window-height="753"
     id="namedview26"
     showgrid="false"
     inkscape:zoom="3.9362278"
     inkscape:cx="65.460626"
     inkscape:cy="40.83784"
     inkscape:window-x="2645"
     inkscape:window-y="39"
     inkscape:window-maximized="0"
     inkscape:current-layer="svg2"
     borderlayer="true" />
  <path
     d="m 7.3412517,69.018295 2.0400003,0 0,-15.686 -2.0410003,0 0,-2.246 8.1430003,0 0,2.246 -2.038,0 0,15.686 4.065,0 0,-4.48 2.039,0 0,-2.245 2.039,0 0,8.972 -14.2480003,0 0,-2.246 z"
     id="path4"
     style="fill:#bf80ff"
     inkscape:connector-curvature="0" />
  <path
     d="m 27.717252,55.565295 0,11.22 2.038,0 0,2.233 2.04,0 0,-2.233 2.026,0 0,-11.22 -2.027,0 0,-2.232 -2.039,0 0,2.233 -2.038,0 z m -4.066,0 2.039,0 0,-2.232 2.027,0 0,-2.247 6.104,0 0,2.246 2.039,0 0,2.233 2.038,0 0,11.22 -2.038,0 0,2.233 -2.04,0 0,2.246 -6.104,0 0,-2.246 -2.026,0 0,-2.233 -2.04,0 0,-11.22 z"
     id="path6"
     style="fill:#80ffff"
     inkscape:connector-curvature="0" />
  <path
     d="m 39.961252,55.565295 2.039,0 0.25,-2.233 1.777,0 0.262,-2.246 7.88,0 0,2.246 2.04,0 0,4.48 -4.079,0 0,-4.48 -4.066,0 0,2.233 -2.038,0 0,11.22 2.038,0 0,2.233 4.066,0 0,-4.48 -2.027,0 0,-2.245 6.104,0 0,8.972 -10.18,0 0,-2.246 -2.027,0 0,-2.233 -2.04,0 0,-11.221 z"
     id="path8"
     style="fill:#ff8080"
     inkscape:connector-curvature="0" />
  <path
     d="m 60.336252,55.565295 0,11.22 2.04,0 0,2.233 2.038,0 0,-2.233 2.027,0 0,-11.22 -2.027,0 0,-2.232 -2.039,0 0,2.233 -2.039,0 z m -4.065,0 2.039,0 0,-2.232 2.026,0 0,-2.247 6.105,0 0,2.246 2.038,0 0,2.233 2.039,0 0,11.22 -2.039,0 0,2.233 -2.038,0 0,2.246 -6.105,0 0,-2.246 -2.026,0 0,-2.233 -2.04,0 0,-11.22 z"
     id="path10"
     style="fill:#80ff80"
     inkscape:connector-curvature="0" />
  <path
     d="m 56.300899,40.739897 c 3.008882,-1.428123 2.280785,-5.238789 0.192989,-7.154648 -1.263204,-1.5176 2.084287,-1.986038 1.522863,-3.938741 2.047444,-1.589532 4.638767,-2.526409 6.396726,-4.608941 1.882525,-1.870244 1.750942,-5.247561 2.912388,-7.137104 3.180818,0.192989 2.280785,-3.396616 0.759677,-4.977376 -3.593115,-4.6001687 -11.839031,-2.845718 -13.43909,2.865018 -0.512299,1.977265 0.803539,5.228261 -1.77024,5.80723 -2.286049,-2.550971 -4.875617,-4.863336 -8.007311,-6.172156 -6.326548,-3.158011 -14.126834,-2.257978 -19.74283,2.112358 -3.829965,2.826419 -6.554626,7.114296 -7.861692,11.830259 -1.010563,3.543989 -4.75456,-0.01579 -7.073944,0.582477 -1.35619,2.070251 1.114077,4.870354 2.915897,5.877409 2.400088,0.596513 1.8527,4.686136 4.926497,4.363317 1.133375,-0.08772 -0.02105,1.398297 0.01754,2.063234 -1.175481,2.10534 -0.02807,4.845792 2.228152,5.33002 2.838701,0.310538 6.416025,-1.526372 6.280932,-4.975621 0.04035,-1.32461 -0.292993,-2.614131 -0.496509,-3.91067 l 22.148185,-4.351037 c 0.789502,2.403597 1.043897,5.631786 3.663292,6.57568 1.442158,0.357908 3.008882,0.259659 4.426478,-0.180708 z M 52.265663,38.4942 c -1.375489,-1.05267 -1.215834,-3.050989 -1.608831,-4.631748 1.421105,-0.247378 3.207135,-1.0053 4.10366,0.724588 1.719361,1.21057 2.715889,4.965094 -0.485983,4.522973 -0.698271,-0.02807 -1.421105,-0.187727 -2.007091,-0.614058 z m -31.69239,6.896745 c -1.631639,-1.086005 -0.114039,-3.249242 0.166673,-4.782632 -0.01053,-1.198289 1.105303,-1.040389 1.921123,-1.24566 0.678972,0.03509 2.082532,-0.917577 1.831646,0.385979 0.02456,1.815857 0.752659,4.298404 -1.138638,5.315985 -0.870208,0.392997 -1.877262,0.956175 -2.780804,0.326328 z m -3.035199,-7.593261 c -1.178991,-2.182536 3.200117,-1.666728 4.40367,-2.357982 10.742499,-2.157973 21.474472,-4.400161 32.26785,-6.238825 2.047444,-0.85968 2.500092,1.598304 0.310538,1.614094 -8.596807,2.103586 -17.325197,3.565043 -25.988673,5.323003 -3.561534,0.601776 -7.098506,1.535144 -10.703901,1.750941 l -0.289484,-0.09123 z M 56.40792,27.007814 c -1.984283,-0.915823 -3.005373,-4.00541 -0.614057,-5.052817 1.721116,-1.886034 0.06491,-4.610695 1.336891,-6.649366 1.94744,-3.666801 7.779233,-4.389635 9.902118,-0.522827 1.145656,0.977229 -0.257905,0.998283 -1.05618,1.24566 -1.610585,-0.02807 -4.10015,1.712344 -1.401805,2.415878 0.871961,0.498264 -0.57546,2.47553 -0.59125,3.400125 -1.077233,2.908879 -3.956286,4.194891 -6.417779,5.487921 -0.398261,-0.05263 -0.777222,-0.200008 -1.157938,-0.324574 z m 6.135313,-11.66534 c -0.292993,-2.412369 -2.917651,0.19299 -0.815819,0.538616 l 0.50879,-0.210534 0.307029,-0.328082 z M 15.452032,34.553705 c -1.40356,-0.298256 -4.45455,-2.450967 -1.322855,-1.764977 1.377243,-0.501773 4.187873,1.808838 1.635147,1.849191 l -0.312292,-0.08772 z m 27.397496,-8.486276 c -2.614131,-1.657956 -1.75445,-4.407179 -0.09825,-6.482694 0.631602,-1.773749 1.882525,-3.093096 3.373808,-1.310574 3.026427,1.975511 5.600206,4.830001 7.063417,8.272233 -2.631675,1.015827 -5.473885,1.291275 -8.210827,1.903578 -0.710552,-0.794766 -1.421104,-1.587777 -2.128148,-2.382543 z M 29.77361,30.320216 c 0.557915,-1.310574 1.047407,-2.654483 1.535144,-3.996637 l 7.603788,-1.493038 c 1.122848,1.263205 2.480793,2.39658 3.370299,3.817684 -2.491319,1.063197 -5.26686,1.273731 -7.895026,1.882526 l -5.135277,1.008808 0.521072,-1.219343 z m -10.930225,2.147448 a 19.614755,19.614755 0 0 1 5.035272,-11.210938 c 2.017618,1.233379 3.722944,2.965021 5.561608,4.475603 -0.770204,2.115867 -1.638657,4.187873 -2.500092,6.261633 l -8.117842,1.59655 0.02281,-1.122848 z m 9.410871,-10.445998 -2.74396,-2.291312 c 1.957967,-1.456193 3.912424,-3.108886 6.407253,-3.312402 2.887825,-0.543879 5.896707,-1.522863 8.777514,-0.394751 0.835119,0.22457 2.135166,0.24036 1.101795,1.298293 l -3.052743,5.477394 -7.749407,1.512336 -2.742206,-2.289558 z"
     id="path12"
     style="fill:#aaaaaa"
     inkscape:connector-curvature="0" />
</svg>
