<svg xmlns="http://www.w3.org/2000/svg" width="80" height="80" id="svg2">
    <path d="M7.341 69.018h2.04V53.332h-2.04v-2.246h8.142v2.246h-2.038v15.686h4.065v-4.48h2.04v-2.245h2.038v8.972H7.34V69.02z" id="path4" fill="#eee"/>
    <path d="M27.717 55.565v11.22h2.038v2.233h2.04v-2.233h2.026v-11.22h-2.027v-2.232h-2.039v2.233h-2.038zm-4.066 0h2.04v-2.232h2.026v-2.247h6.104v2.246h2.04v2.233h2.037v11.22H35.86v2.233h-2.04v2.246h-6.104v-2.246H25.69v-2.233h-2.04v-11.22z" id="path6" fill="#eee"/>
    <path d="M39.961 55.565h2.04l.25-2.233h1.776l.262-2.246h7.88v2.246h2.04v4.48H50.13v-4.48h-4.066v2.233h-2.038v11.22h2.038v2.233h4.066v-4.48h-2.027v-2.245h6.104v8.972h-10.18V69.02H42v-2.233h-2.04v-11.22z" id="path8" fill="#eee"/>
    <path d="M60.336 55.565v11.22h2.04v2.233h2.038v-2.233h2.027v-11.22h-2.027v-2.232h-2.039v2.233h-2.039zm-4.065 0h2.04v-2.232h2.025v-2.247h6.105v2.246h2.038v2.233h2.04v11.22h-2.04v2.233h-2.038v2.246h-6.105v-2.246H58.31v-2.233h-2.04v-11.22z" id="path10" fill="#eee"/>
    <path d="M56.3 40.74c3.01-1.428 2.282-5.239.194-7.155-1.263-1.517 2.084-1.986 1.523-3.938 2.047-1.59 4.639-2.527 6.396-4.61 1.883-1.87 1.751-5.247 2.913-7.137 3.18.193 2.28-3.396.76-4.977-3.594-4.6-11.84-2.846-13.44 2.865-.512 1.977.804 5.228-1.77 5.807-2.286-2.55-4.875-4.863-8.007-6.172-6.327-3.158-14.127-2.258-19.743 2.113-3.83 2.826-6.555 7.114-7.862 11.83-1.01 3.544-4.754-.016-7.074.582-1.356 2.07 1.115 4.87 2.916 5.878 2.4.596 1.853 4.686 4.927 4.363 1.133-.088-.021 1.398.017 2.063-1.175 2.106-.028 4.846 2.229 5.33 2.838.31 6.416-1.526 6.28-4.975.04-1.325-.293-2.614-.496-3.911l22.148-4.351c.79 2.404 1.044 5.632 3.663 6.576 1.443.358 3.01.26 4.427-.181zm-4.034-2.246c-1.376-1.052-1.216-3.05-1.61-4.632 1.422-.247 3.208-1.005 4.104.725 1.72 1.21 2.716 4.965-.485 4.523-.699-.028-1.422-.188-2.008-.614zm-31.693 6.897c-1.631-1.086-.114-3.25.167-4.783-.01-1.198 1.105-1.04 1.921-1.245.679.035 2.083-.918 1.832.386.024 1.815.752 4.298-1.139 5.316-.87.393-1.877.956-2.78.326zm-3.035-7.593c-1.179-2.183 3.2-1.667 4.404-2.358 10.742-2.158 21.474-4.4 32.268-6.24 2.047-.859 2.5 1.6.31 1.615-8.597 2.104-17.325 3.565-25.989 5.323-3.561.602-7.098 1.535-10.703 1.75l-.29-.09zm38.87-10.79c-1.984-.916-3.005-4.006-.614-5.053 1.721-1.886.065-4.61 1.337-6.65 1.947-3.666 7.779-4.389 9.902-.522 1.146.977-.258.998-1.056 1.245-1.61-.028-4.1 1.713-1.402 2.416.872.499-.576 2.476-.591 3.4-1.078 2.91-3.957 4.195-6.418 5.488-.398-.052-.777-.2-1.158-.324zm6.135-11.666c-.293-2.412-2.917.193-.816.54l.51-.211.306-.329zM15.452 34.554c-1.404-.299-4.455-2.451-1.323-1.765 1.377-.502 4.188 1.809 1.635 1.849l-.312-.088zm27.398-8.487c-2.615-1.658-1.755-4.407-.099-6.482.632-1.774 1.883-3.093 3.374-1.31 3.027 1.975 5.6 4.83 7.064 8.271-2.632 1.016-5.474 1.292-8.211 1.904-.71-.795-1.421-1.588-2.128-2.383zM29.774 30.32c.558-1.31 1.047-2.654 1.535-3.996l7.604-1.493c1.122 1.263 2.48 2.396 3.37 3.817-2.491 1.063-5.267 1.274-7.895 1.883l-5.135 1.009.52-1.22zm-10.93 2.148a19.615 19.615 0 0 1 5.035-11.211c2.017 1.233 3.723 2.965 5.561 4.475-.77 2.116-1.638 4.188-2.5 6.262l-8.118 1.597.023-1.123zm9.41-10.446L25.51 19.73c1.958-1.456 3.913-3.109 6.408-3.312 2.887-.544 5.896-1.523 8.777-.395.835.225 2.135.24 1.102 1.298L38.744 22.8l-7.75 1.512-2.741-2.29z" id="path12" fill="#eee"/>
</svg>